<svg xmlns="http://www.w3.org/2000/svg" viewBox="0 0 572.61 600.25"><defs><style>.cls-1{fill:none;stroke:#231f20;stroke-width:0.75px;}</style></defs><title>cote divoire_en_cours</title>
    <g id="GBELEBAN">
        <polygon class="cls-1" points="46.59 84.78 46.59 88.55 44.63 94.99 43.93 102.69 42.67 105.19 42.67 112.66 43.93 118.08 48.69 124.38 52.19 127.32 58.63 127.32 63.28 124.66 69.96 124.61 71.06 121.19 72.69 105.19 83.88 105.19 84.03 100.87 81.82 95.01 76.73 88.09 69.73 80.1 46.73 82.26 46.59 84.78"/>
    </g>
    <g id="Minignan">
        <polygon class="cls-1" points="74.17 47.76 68.29 53.84 65.07 54.54 62.55 56.22 59.47 56.22 58.49 54.96 56.25 56.22 54.29 57.06 54.29 61.82 44.77 65.74 44.77 69.38 41.55 72.47 45.05 74.42 40.02 77.22 43.51 79.74 43.51 82.26 51.49 82.26 77.87 78.73 80.38 77.14 80.76 74.17 83.04 71.13 87.68 70.75 89.81 72.47 91.63 73.72 94.01 73.95 95.36 71.98 94.62 61.64 100.66 61.39 100.66 65.21 104.35 68.04 115.18 66.44 115.8 64.45 119.98 61.02 119.12 55.11 121.95 51.42 121.95 49.33 120.97 46.5 117.83 47.76 113.41 47.76 113.41 45.73 115.31 45.17 115.45 38.03 110.13 38.03 107.33 34.53 107.47 29.77 102.3 26.97 98.94 29.07 98.24 31.17 95.58 31.17 90.68 27.67 85.67 33.32 82.28 33.32 80.98 35.09 82.56 38.17 79.48 38.17 79.48 42.09 75.42 44.89 74.17 47.76"/>
    </g>
    <g id="SAMA.">
        <polygon class="cls-1" points="91.63 73.72 89.81 72.47 87.68 70.75 83.04 71.13 80.76 74.17 80.38 77.14 77.87 78.73 69.73 80.1 76.73 88.09 81.82 95.01 84.03 100.87 83.88 105.19 93.75 105.19 99.51 100.7 101.61 96.77 94.01 92.79 97.7 89.83 98.19 85.4 96.35 83.68 96.35 77.15 94.01 73.95 91.63 73.72"/>
    </g>
    <g id="MADIANI">
        <polyline class="cls-1" points="168.23 74.81 140.67 72.47 139.93 79.14 136.97 79.14 131.31 83.31 127 83.43 124.91 87 114.32 93.65 114.95 96.77 125.2 106.17 124.08 108.28 125.48 113.76 128.48 113.9 128.48 112.66 131.06 112.66 138.9 119.58 138.9 122.68 141.38 125.26 148.09 125.26 151.7 129.49 167.39 130.11 167.81 126.38 170.34 124.62 167.81 123.52 171.44 120.43 171.66 118.33 173.27 117.78 173.27 114.92 167.81 111.17 167.81 106.87 169.79 104.44 173.02 93.42 170.28 92.31 170.58 90.48 172 89.57 172 86.12 172.92 86.12 173.02 83.38 168.96 76.89 168.86 74.86 168.23 74.81"/>
    </g>
    <g id="KANIASSO">
        <polygon class="cls-1" points="134.64 47.23 120.97 46.5 121.95 49.33 121.95 51.42 119.12 55.11 119.98 61.02 115.8 64.45 115.18 66.44 104.35 68.04 100.66 65.21 100.66 61.39 94.62 61.64 95.36 71.98 94.01 73.95 96.35 77.15 96.35 81.46 96.35 83.68 98.19 85.4 97.7 89.83 94.01 92.79 101.61 96.77 114.95 96.77 114.32 93.65 124.91 87 127 83.43 131.31 83.31 136.97 79.14 139.93 79.14 140.67 72.47 152.42 73.64 152.42 71.91 156.07 68.77 156.07 64.45 163.48 58.11 169.36 58.11 172.1 61.05 176.87 60.45 187.63 54.87 186.82 53.14 187.73 47.76 184.37 47.76 182.28 40.46 181.79 36.28 178.71 37.63 175.39 37.63 174.28 36.28 169.97 36.28 168.49 33.32 164.8 33.32 164.68 35.91 161.97 37.88 158.27 37.63 155.07 36.65 147.56 45.63 149.78 49.82 149.78 53.02 146.09 56.22 142.66 55.48 140.87 53.88 142.66 52.16 142.15 50.91 138.94 50.91 134.64 47.23"/>
    </g>
    <g id="TENGRELA">
        <path class="cls-1" d="M215.45,124.73v9.11l-1.78,2.7h-4.06l-5.17-.49L201.36,133h-2.21l-3.08-5.66-3.33.25v4.18l-2,.37,1,9.11h-1.6v5.67l4.06,2.21s1.48.62.49,2.34l-1,1.73-.49,3.93.49,4.19,1.6,6.16.49,1.14h3.36l2.54,1.83,1.72-1.83H214.6l.85,2.94,2.5.2,6.29-3.14,5,.61,4.13,2.44v-1.95l2.2-.51v-2.35h-1.92L233.5,164l-1.36-1.85,1.48-1.6,1.92,1.11v-3.32l2-2.1-1-1.72-.12-2.19h1.85v-1.75l-2.47-2.35V146l2.47-1.23v-1.23h-3.86v-2h-3.53l-.25-1.84,3.08-2.71V134.7l-1.11-2.22,2.84-.74-1.85-2.58h-1.73l-.24-4.43,1.23-2-3.45-1.48-4.61,5.17-3.88.25Z" transform="translate(-11.45 -120.83)"/>
    </g>
    <g id="BOUNDIALI">
        <polygon class="cls-1" points="184.78 106.43 173.27 106.87 169.79 104.44 167.81 106.87 167.81 111.17 173.27 114.92 173.27 117.78 171.66 118.33 171.44 120.43 167.81 123.52 170.34 124.62 167.81 126.38 167.39 130.11 168.92 131.35 168.92 137.54 171.42 137.54 173.27 138.78 173.27 144.49 171.62 147.03 171.72 149.31 172.86 150.44 171.54 152.83 174.89 152.83 176.86 154.7 177.65 158.35 189.48 157.07 189.48 151.45 190.56 149.28 195.69 150.46 198.25 157.86 201.6 157.86 205.05 154.01 205.05 152.24 209.09 147.31 210.59 144.49 213.37 144.49 218.36 136.26 218.36 125.06 228.48 121.01 229.43 116.42 228.48 114.05 228.48 105.22 232.66 103.33 234.15 98.75 232.66 94.92 233.2 89.17 234.15 87.55 236.85 90.38 239.28 90.11 240.62 87.75 240.28 86.48 233.67 81.06 230.62 80.55 226.55 77.24 226.47 73.17 229.94 72.07 231.89 70.3 231.89 68.6 228.84 66.4 221.38 66.4 216.64 64.45 214 66.19 214 69.17 213.37 71.7 213.89 77.32 216.04 79.31 215.43 82.28 213.37 84.27 210.25 84.27 209.59 90.77 208.15 102.9 207.49 107.86 204.74 109.74 200.88 110.51 198.78 107.64 196.14 107.75 195.03 110.51 191.51 109.85 189.3 106.21 184.78 106.43"/>
    </g>
    <g id="SEGUELON">
        <polygon class="cls-1" points="167.39 130.11 151.7 129.49 148.09 125.26 141.38 125.26 138.9 122.68 138.9 119.58 131.06 112.66 128.48 112.66 128.48 113.9 125.48 113.76 122.4 116.99 125.06 124.57 122.4 124.57 119.59 127.38 113.41 129.76 116.5 139.73 127.97 141.98 129.42 141.14 136.44 141.84 139.67 145.49 142.66 145.21 142.05 150.82 138.52 159.34 142.07 160.91 146.7 167.22 154.78 166.83 157.25 170.18 158.63 170.18 158.63 158.94 160.5 157.07 164.74 157.07 171.54 152.83 172.86 150.44 171.72 149.31 171.62 147.03 173.27 144.49 173.27 138.78 171.42 137.54 168.92 137.54 168.92 131.35 167.39 130.11"/>
    </g>
    <g id="KORO">
        <polygon class="cls-1" points="68.62 161.07 65.25 161.92 61.6 165.71 63.28 170.9 61.6 173.01 63.28 174.55 61.6 178.34 59.91 178.34 59.91 181.58 60.62 183.96 62.72 185.93 65.53 185.93 65.81 183.82 68.62 183.82 68.62 185.93 71.29 185.93 76.48 186.63 76.48 190.23 80.41 190.23 80.41 193.93 81.82 196.46 84.91 196.46 86.73 199.97 84.34 205.72 87.72 210.97 86.83 218.38 90.36 217.82 92.98 219.64 94 222.37 96.05 224.3 99.92 224.3 99.92 221.46 105.72 216.56 110.5 219.52 113.35 219.52 113.8 216.34 116.08 216.11 117.44 217.13 120.17 215.54 120.17 212.47 123.7 212.47 125.86 216.68 127.68 215.65 132.24 215.65 133.8 210.97 129.28 208.11 127.17 199.69 122.54 195.12 114.67 194.21 114.67 191.96 112.01 186.77 108.92 186.77 103.02 180.59 97.54 177.92 96.84 172.59 91.08 168.09 85.05 166.83 85.33 162.06 83.23 158.83 80.63 157.16 73.3 157.16 73.3 159.25 70.44 157.16 68.62 161.07"/>
    </g>
    <g id="ODIENNE">
        <polygon class="cls-1" points="101.61 96.77 99.51 100.7 93.75 105.19 72.69 105.19 71.01 121.76 66.79 133.27 66.79 135.8 63.28 143.8 66.51 148.72 70.16 147.17 73.3 149.7 73.3 151.67 77.75 155.32 83.23 158.83 85.33 162.06 85.05 166.83 91.08 168.09 96.84 172.59 97.54 177.92 103.02 180.59 108.92 186.77 112.01 186.77 114.67 191.96 114.67 194.21 120.01 194.21 122.54 195.12 127.17 199.69 129.28 208.11 132.03 209.34 130.75 205.01 129.35 198.37 130.75 185.46 127.97 169.09 133.39 168.69 133.39 164.46 138.52 159.34 142.05 150.82 142.66 145.21 139.67 145.49 136.44 141.84 129.42 141.14 127.97 141.98 122.11 141 116.5 139.73 113.41 129.76 119.59 127.38 122.4 124.57 125.06 124.57 122.4 116.99 125.48 113.76 124.08 108.28 125.2 106.17 114.95 96.77 101.61 96.77"/>
    </g>
    <g id="KANI">
        <polygon class="cls-1" points="164.74 157.07 160.5 157.07 158.63 158.94 158.63 170.18 157.25 170.18 154.78 166.83 146.7 167.22 142.07 160.91 138.52 159.34 133.39 164.46 133.39 168.69 127.97 169.09 129.06 176.29 130.75 185.46 129.35 198.37 130.75 205.01 162.2 203.88 164.45 206.61 166.86 206.61 166.86 203.88 170.07 203.88 172.15 209.5 172.15 212.47 173.6 215.92 173.6 225.39 176.81 227.63 197.03 227.63 202.81 224.75 207.46 226.67 209.87 226.51 208.17 218.15 203.97 218.67 203.97 216.11 202.88 216.11 202.59 212.47 200.42 212.47 200.42 210.3 202.79 209.8 199.93 191.47 204.36 191.47 204.96 183.49 203.57 181.32 201.7 181.32 200.91 183.49 199.53 181.81 199.53 179.44 196.97 176.59 191.65 174.12 190.76 169.98 187.11 169.88 185.73 171.95 184.45 171.95 184.06 170.28 180.81 170.47 178.24 171.95 176.86 168.69 177.65 158.35 176.86 154.7 174.89 152.83 171.54 152.83 164.74 157.07"/>
    </g>
    <g id="DIANRA">
        <polygon class="cls-1" points="209.09 147.31 205.05 152.24 205.05 154.01 201.6 157.86 198.25 157.86 195.69 150.46 190.56 149.28 189.48 151.45 189.48 153.62 189.48 157.07 177.65 158.35 176.86 168.69 178.24 171.95 180.81 170.47 184.06 170.28 184.45 171.95 185.73 171.95 187.11 169.88 190.76 169.98 191.65 174.12 196.97 176.59 199.53 179.44 199.53 181.81 200.91 183.49 201.7 181.32 203.57 181.32 204.96 183.49 204.36 191.47 199.93 191.47 202.79 209.8 200.42 210.3 200.42 212.47 202.59 212.47 202.88 216.11 203.97 216.11 203.97 218.67 208.17 218.15 214.62 212.7 214.62 209.8 216.51 209.14 217.74 210.47 218.96 210.47 219.52 209.25 222.63 209.25 223.63 206.35 225.86 206.35 231.87 199.13 238.21 196.46 244.32 195.12 230.1 170 219.71 164.6 219.17 161.5 217.82 157.72 222.14 151.78 222 149.35 218.63 146.45 213.37 144.49 210.59 144.49 209.09 147.31"/>
    </g>
    <g id="DIKODOUGOU">
        <polygon class="cls-1" points="239.01 187.17 244.32 195.12 245.55 197.23 252.78 197.9 269.48 207.02 275.98 206.79 275.97 200.68 273.07 201.69 270.67 200.3 269.79 197.27 271.56 196.13 273.32 189.06 268.9 184.9 271.05 178.84 268.9 158.12 270.58 158.12 272.61 155.69 272.47 152.45 276.39 152.18 278.95 145.71 276.79 143.63 274.36 142.47 275.17 138.56 272.2 139.23 257.49 130.37 251.29 135.59 248.18 137.88 249.26 139.9 249.67 144.22 251.29 145.84 251.29 148.27 248.99 152.18 251.29 154.21 241.44 165.68 241.84 171.2 246.98 180.12 251.29 182.55 236.71 182.55 239.01 187.17"/>
    </g>
    <g id="KORHOGO">
        <polygon class="cls-1" points="234.15 87.55 233.2 89.17 232.66 94.92 234.15 98.75 232.66 103.33 228.48 105.22 228.48 114.05 229.43 116.42 228.48 121.01 218.36 125.06 218.36 136.26 213.37 144.49 218.63 146.45 222 149.35 222.14 151.78 217.82 157.72 219.17 161.5 219.71 164.6 230.1 170 236.71 182.55 251.29 182.55 246.98 180.12 241.84 171.2 241.44 165.68 251.29 154.21 248.99 152.18 251.29 148.27 251.29 145.84 249.67 144.22 249.26 139.9 248.18 137.88 251.29 135.59 257.49 130.37 272.2 139.23 275.17 138.56 274.36 142.47 276.79 143.63 278.95 145.71 276.39 152.18 272.47 152.45 272.61 155.69 270.58 158.12 268.9 158.12 271.05 178.84 280.39 179.72 282.03 176.57 290.24 176.57 291.88 177.45 293.77 175.68 292.51 170.63 293.39 165.46 297.56 165.46 294.15 161.29 290.24 159.4 290.24 156.24 293.39 156.24 305.64 130.37 298.53 129.77 297.35 128.22 297.17 126.57 298.96 125.62 298.53 123.36 294.24 122.7 294.29 118.22 290.33 118.18 290.24 119.73 288.59 119.73 288.59 117.28 290.85 113.6 290.57 109.17 294.95 104.55 295.28 103.09 293.9 103.19 293.63 100.97 295.14 100.5 295 97.73 293.9 93.99 284.62 94.92 277.92 93.48 275.29 91.69 274.08 94.44 270.02 90.8 266.46 90.8 261.97 97.73 255.7 92.15 246.46 91.56 244.51 94.92 242.48 94.92 243.16 87.75 240.62 87.75 239.28 90.11 236.85 90.38 234.15 87.55"/>
    </g>
    <g id="M_BENGUE" data-name="M&apos;BENGUE">
        <polygon class="cls-1" points="242.48 51.48 229.94 50.38 224.09 48.35 221.89 48.86 221.89 50.81 222.99 53.35 216.04 60.94 216.64 64.45 221.38 66.4 228.84 66.4 231.89 68.6 231.89 70.3 229.94 72.07 226.47 73.17 226.55 77.24 230.62 80.55 233.67 81.06 240.28 86.48 240.62 87.75 243.16 87.75 242.48 94.92 244.51 94.92 246.46 91.56 255.7 92.15 261.97 97.73 266.46 90.8 270.02 90.8 274.08 94.44 275.29 91.69 277.92 89.66 277.56 86.66 274.57 85.71 272.42 82.95 272.42 80.08 269.42 77.81 268.82 62.49 267.75 60.46 267.75 58.06 262.36 50.65 263.44 47.77 261.65 42.41 260.21 35.57 263.56 34.49 263.44 31.5 260.21 31.5 258.75 34.63 255.27 35.05 255.27 40.73 253.49 42.34 253.66 45.13 251.63 45.89 250.53 44.96 247.39 44.96 247.39 47.5 242.48 51.48"/>
    </g>
    <g id="SINE.">
        <polygon class="cls-1" points="294.95 104.55 290.57 109.17 290.85 113.6 288.59 117.28 288.59 119.73 290.24 119.73 290.33 118.18 294.29 118.22 294.24 122.7 298.53 123.36 298.96 125.62 297.17 126.57 297.35 128.22 298.53 129.77 305.64 130.37 304.92 127.34 307.69 122.11 308.34 108.65 298.87 99.49 295 97.73 295.14 100.5 293.63 100.97 293.9 103.19 295.28 103.09 294.95 104.55"/>
    </g>
    <g id="OUANGOLODOUGOU">
        <polygon class="cls-1" points="284.62 28.03 277.56 28.03 275.29 26.95 272.3 26.95 269.66 29.59 266.07 29.59 263.92 29.59 260.21 31.5 263.44 31.5 263.56 34.49 260.21 35.57 261.53 42.03 263.44 47.77 262.36 50.65 267.75 58.06 267.75 60.46 268.82 62.49 269.42 77.81 272.42 80.08 272.42 82.95 274.57 85.71 277.56 86.66 277.92 89.66 275.29 91.69 277.92 93.48 284.62 94.92 293.9 93.99 296.55 88.02 296.55 83.49 301.62 77.76 304.82 77.64 306.7 76.32 307.69 78.2 309.79 77.76 317.07 81.62 318.73 79.63 318.73 77.15 323.47 75.77 326.89 78.53 329.43 78.53 332.41 77.76 334.51 75.77 340.47 76.76 342.42 74.34 340.62 72.54 338.83 72.42 338.71 70.15 340.98 70.39 339.78 66.08 337.78 64.29 335.12 64.53 328.42 51.13 325.42 51.13 325.54 46.7 327.58 45.5 327.58 44.19 325.66 44.3 325.66 42.15 323.87 42.15 322.79 43.47 320.52 43.71 317.41 40.83 309.27 40.48 302.69 43.71 298.02 41.67 292.76 36.05 289.05 30.78 284.62 28.03"/>
    </g>
    <g id="FERKESSEDOUGOU">
        <polygon class="cls-1" points="340.47 76.76 334.51 75.77 332.41 77.76 329.43 78.53 326.89 78.53 323.47 75.77 318.73 77.15 318.73 79.63 317.07 81.62 309.79 77.76 307.69 78.2 306.7 76.32 304.82 77.64 301.62 77.76 296.55 83.49 296.55 88.02 293.9 93.99 295 97.73 298.87 99.49 308.34 108.65 307.69 122.11 304.92 127.34 318.64 125.06 319.9 129.48 324.19 133.27 335.56 135.67 336.31 142.86 337.78 143.63 355.03 114.46 358.53 112.39 357.75 109.92 364.49 99.81 361.99 93.99 359.34 93.09 357.24 93.53 355.81 91.33 356.8 85.7 353.38 84.6 353.05 82.61 348.96 82.61 346.1 80.63 344.11 80.84 343 81.62 340.02 80.4 340.47 76.76"/>
    </g>
    <g id="NIAKARAMADOUGOU">
        <polygon class="cls-1" points="324.19 133.27 319.9 129.48 318.64 125.06 304.92 127.34 305.64 130.37 293.39 156.24 290.24 156.24 290.24 159.4 294.15 161.29 297.56 165.46 293.39 165.46 292.51 170.63 293.77 175.68 291.88 177.45 290.24 176.57 282.03 176.57 280.39 179.72 271.05 178.84 268.9 184.9 273.32 189.06 271.56 196.13 269.79 197.27 270.67 200.3 273.07 201.69 275.97 200.68 275.98 206.79 278.81 206.69 280.7 208.91 281.14 212.03 286.82 214.14 286.82 216.03 312.38 216.07 326.67 219.22 331.64 223.49 335.82 223.25 338.19 225.7 344.66 225.78 347.77 221.14 344.95 217.91 342.42 217.91 342.42 215.51 344.95 212.84 341.72 207.92 342 203.84 339.47 203.84 337.78 197.51 341.44 192.31 341.44 186.26 340.03 184.15 337.78 182.63 340.74 171.2 345.05 167.49 347.64 153.49 340.9 150.89 338.56 148.95 337.78 143.63 336.31 142.86 335.56 135.67 331.39 134.91 324.19 133.27"/>
    </g>
    <g id="KONG">
        <polygon class="cls-1" points="364.49 99.81 357.75 109.92 358.53 112.39 355.03 114.46 337.78 143.63 338.56 148.95 340.9 150.89 347.64 153.49 345.05 167.49 340.74 171.2 377.73 171.2 382.8 171.91 384.25 175.28 382.51 179.65 385.89 185.55 389.69 188.37 396.16 187.38 398.69 189.77 405.86 188.22 407.13 192.31 411.07 195.96 412.48 193.57 420.35 196.24 436.11 198.92 436.75 193.87 440.05 192.59 443.17 192.59 443.17 190.02 448.79 185.04 448.79 180.7 446.87 179.58 445.9 175.4 444.13 175.4 443.33 172.67 440.05 170.59 440.05 168.66 444.46 167.53 449.92 164.16 447.03 162.07 443.97 161.11 441.24 159.34 441.89 154.53 440.05 153.56 440.05 150.03 441.4 147.78 436.59 147.78 434.98 145.21 430.97 145.21 427.11 144.09 424.38 140.07 417.96 139.27 415.07 141.84 412.34 139.43 415.07 137.34 411.69 131.72 413.14 127.22 412.66 121.6 408 117.75 408 114.05 402.54 107.95 399.37 105.86 396 105.86 396 108.5 394.57 108.63 392.5 106.55 392.24 103.05 391.07 102.01 388.91 102.27 388.35 103.05 381.99 103.34 382.26 97.47 383.42 96.96 383.68 94.75 382.51 93.99 379.14 93.99 379.27 97.86 378.5 99.42 376.42 99.81 374.35 96.83 372.92 96.83 372.01 97.73 369.68 98.25 368.77 99.55 364.49 99.81"/>
    </g>
    <g id="TEHINI">
        <polygon class="cls-1" points="473.49 76.3 468.7 76.3 467.47 74.41 464.93 74.41 462.32 77.02 453.04 77.02 449.42 79.56 440.64 79.56 438.69 81.73 433.97 82.17 433.46 85.79 428.46 86.16 427.08 88.04 423.68 88.04 419.33 84.85 413.67 91.01 407.87 92.39 405.12 94.5 402.54 107.95 411.53 106.83 417.15 110.52 420.69 111.32 424.86 108.59 427.59 108.43 431.29 110.52 434.98 109.88 438.03 110.52 443.49 110.52 453.61 106.99 461.8 106.99 467.1 109.56 470.96 109.56 475.61 108.59 477.28 112.45 478.99 113.57 481.56 110.52 479.47 110.52 478.99 107.95 476.1 105.86 477.28 103.61 477.28 97.03 482.52 87.88 484.29 87.55 484.13 80.65 482.68 77.28 473.49 76.3"/>
    </g>
    <g id="DOROPO">
        <polygon class="cls-1" points="498.5 84.02 506.77 75.83 506.77 85.95 510.46 84.34 516.41 88.2 516.41 91.73 519.46 96.39 524.44 94.62 528.45 104.58 531.66 110.68 521.06 110.68 517.53 111.81 515.92 109.4 510.63 109.4 507.89 105.86 503.88 108.27 499.06 117.43 500.19 123.85 501.63 126.9 500.67 130.6 497.94 128.19 491.67 129.63 477.28 130.6 474.97 131.72 471.99 131.72 470.8 135.09 461.03 137.82 459.55 136.22 455.86 134.13 438.03 136.38 438.03 138.95 434.98 142.32 434.98 145.21 430.97 145.21 427.11 144.09 424.38 140.07 417.96 139.27 415.07 141.84 412.34 139.43 415.07 137.34 411.69 131.72 413.14 127.22 412.66 121.6 408 117.75 408 114.05 402.54 107.95 411.53 106.83 417.15 110.52 420.69 111.32 424.86 108.59 427.59 108.43 431.29 110.52 434.98 109.88 438.03 110.52 443.49 110.52 453.61 106.99 461.8 106.99 467.1 109.56 470.96 109.56 475.61 108.59 477.28 112.45 478.99 113.57 481.56 110.52 479.47 110.52 478.99 107.95 476.1 105.86 477.28 103.61 477.28 97.03 482.52 87.88 484.29 87.55 484.13 80.65 482.68 77.28 488.46 77.28 491.03 79.52 495.05 79.52 495.53 82.25 498.5 84.02"/>
    </g>
    <g id="BOUNA">
        <path class="cls-1" d="M555.48,245.48l-12.37-14h-10.6L529,232.63l-1.61-2.41h-5.3l-2.73-3.53-4,2.41-4.82,9.15,1.12,6.43,1.45,3-1,3.69L509.38,249l-6.26,1.45-14.4,1-2.3,1.13h-3l-1.2,3.37-9.76,2.73L471,257,467.31,255l-17.83,2.24v2.57l-3.05,3.38V266l1.6,2.57h4.82l-1.36,2.25v3.53l1.84,1-.64,4.82,2.73,1.77,3.05,1,2.89,2.09-5.46,3.37-4.41,1.13v1.92l3.29,2.09.8,2.73h1.77l1,4.18,1.93,1.12v4.34l-5.62,5v2.57h-3.13l-3.3,1.28-.63,5,15.11-3.2,2.44,2,7.95,1.75,3.7,3.12,5.41,2.44,3.5,5.09,2.86-3.18,7.84-1,2.75-3.92,4.35-.84,4.77.1,1.69,1.59,4-.74,1.48-2.54,3.61-10.81h1.58v1.69h6.46l6.46,7h6.79l8.52-1.57,12.69-5.62,8.5-6.15,3.42-3.67-2.41-5,.16-4.36-3.05-1.74-.33-6.42s-1.12-2.09-5.3-1.93l-4.17.16-2.09-2.25,1.77-2.73-.81-5.94,3.54-.48,2.09-5.46,2.73-2.57h1.92V260.1l-1.28-1.61H562.7l-1.12-2.25-.16-2.89,4.34-1.93v-5l-.65-6.9-5.62,6.58Z" transform="translate(-11.45 -120.83)"/>
    </g>
    <g id="NASSIAN">
        <polygon class="cls-1" points="515.65 190.52 509.18 190.52 509.18 188.82 507.6 188.82 503.99 199.63 502.51 202.17 498.48 202.91 496.79 201.32 492.02 201.22 487.67 202.07 484.92 205.99 477.08 206.94 474.22 210.12 470.72 205.03 465.32 202.6 461.61 199.47 453.66 197.72 451.23 195.71 436.11 198.92 440.05 202.85 440.05 204.54 432.45 207.5 432.73 210.45 437.37 211.58 436.11 215.8 441.71 220.4 443.11 223.18 445.05 224.79 446.47 227.36 446.47 231.93 458.55 232.48 461.85 228.09 464.23 228.09 469.36 234.31 469.36 238.4 472.65 239.81 471.99 237.33 483.37 233.27 486 229.48 491.88 229.48 492.66 223.18 495.15 220.58 495.67 216.92 494.76 215.8 496.79 215.09 498.16 212.34 506.63 208.94 507.6 206.32 512.55 206.06 516.74 207.5 520.79 205.41 520.01 198.99 522.1 197.56 515.65 190.52"/>
    </g>
    <g id="BONDOUKOU">
        <polygon class="cls-1" points="563.44 184.21 572.21 238.64 567.11 243.74 561.61 243.74 560.04 245.44 560.04 249.37 562.66 252.82 562.14 255.78 555.46 255.78 549.45 262.07 549.45 265.58 546.44 262.97 544.74 262.97 543.82 270.43 540.02 275.15 540.02 277.5 538.14 280.41 535.43 280.41 536.78 275.47 533.99 273.08 533.99 270.05 530.33 269.41 526.98 271.16 520.92 265.9 515.18 264.46 515.18 258.41 517.73 256.97 516.88 254.9 512.94 254.9 508 252.82 499.55 254.58 496.79 257.52 479.61 249.15 472.65 239.81 471.99 237.33 483.37 233.27 486 229.48 491.88 229.48 492.66 223.18 495.15 220.58 495.67 216.92 494.76 215.8 496.79 215.09 498.16 212.34 506.63 208.94 507.6 206.32 512.55 206.06 516.74 207.5 520.79 205.41 520.01 198.99 522.1 197.56 528.89 197.56 537.41 195.99 544.87 192.84 550.1 190.36 558.6 184.21 563.44 184.21"/>
    </g>
    <g id="SANDEGUE">
        <polygon class="cls-1" points="479.61 249.15 472.65 239.81 469.36 238.4 469.36 234.31 464.23 228.09 461.85 228.09 458.55 232.48 446.47 231.93 446.47 227.36 445.05 224.79 443.11 223.18 441.71 220.4 436.11 215.8 433.72 217.34 429.78 217.63 430.2 220.16 434.7 221.56 431.04 223.96 434.14 225.78 432.31 229.86 425.28 229.02 425.28 231.13 429.22 235.07 429.5 238.4 426.96 239.43 427.39 242.1 427.91 243.07 431.04 241.68 436.11 246.37 436.11 248.15 430.34 248.15 427.79 253.78 430.5 255.06 433.21 255.06 433.69 256.97 430.5 256.97 428.74 260.16 429.54 262.07 436.9 260.16 437.99 262.07 435.12 265.26 431.19 266.22 431.19 267.65 441.34 269.41 442.46 271.56 443.11 278.98 449.41 269.09 458.56 263.51 463.99 263.67 463.99 262.07 467.33 263.51 470.05 269.17 474.35 269.17 475.47 270.37 479.3 270.37 483.76 267.97 487.11 262.07 492.53 262.07 496.79 257.52 479.61 249.15"/>
    </g>
    <g id="DABAKALA">
        <path class="cls-1" d="M389.18,292h-37l-2.95,12,2.25,1,1.41,2.11v6.05l-3.66,5.21,1.69,6.33h2.53l-.28,4.08,3.23,4.92-2.53,2.67v2.39h2.53l2.82,3.24-3.11,4.63,2.21,3-.32,2.21,3.08,1.66,2.21,12.31,1.9,1.42.47,3h2.76l4,7,1.21-2.62h5.95l3.18,6.24,2.55,2.64-.24,7.59,7.49,4.9,17.46-2.87,3-2.39V388H416l.8-1.59h2.89v2.07l7.79.8,2.24-2.23,5.42-.48.32-4.94-2.4-3,6.22-4,2.56-5.63h5.77V367.2l-5.07-4.69s-3.23,3.09-3.66.42l-.42-2.67,2.53-1-.28-3.33L436.72,352v-2.11l7,.84,1.83-4.08-3.1-1.83,3.66-2.39-4.5-1.41-.42-2.53,3.93-.28,2.4-1.55,1.26-4.22-4.64-1.12-.28-3,7.59-2.95v-1.69l-3.93-3.94-5.35-1.4-10.41-1.27-7.88-2.67-1.4,2.39-3.94-3.66-1.27-4.08-7.17,1.55-2.53-2.39-6.47,1-3.8-2.81L394,300.47l1.74-4.36-1.46-3.37Z" transform="translate(-11.45 -120.83)"/>
    </g>
    <g id="KATIOLA">
        <polygon class="cls-1" points="331.64 223.49 326.67 219.22 312.38 216.07 286.82 216.03 283.81 216.03 282.48 214.59 277.36 215.48 277.36 217.37 282.7 219.37 284.85 222.71 289.15 222.48 289.93 224.04 295.94 226.27 297.05 229.16 299.61 228.94 299.61 232.16 303.06 232.05 304.92 234.28 301.5 234.28 302.94 237.28 302.94 242.28 299.48 242.62 299.48 246.37 301.08 246.37 301.88 247.81 304.36 247.81 307.56 249.73 309.64 252.61 312.44 252.61 318.04 255.65 318.04 259.09 321.56 262.21 323.88 261.33 329.09 261.46 332.82 259.54 339.69 259.17 341.86 260.62 344.38 260.62 353.66 257.37 361.01 256.4 356.98 249.38 354.21 249.38 353.74 246.37 351.84 244.96 349.63 232.64 346.56 230.98 346.87 228.77 344.66 225.78 338.19 225.7 335.82 223.25 331.64 223.49"/>
    </g>
    <g id="MANKONO">
        <polygon class="cls-1" points="269.48 207.02 252.78 197.9 245.55 197.23 244.32 195.12 238.21 196.46 231.87 199.13 225.86 206.35 223.63 206.35 222.63 209.25 219.52 209.25 218.96 210.47 217.74 210.47 216.51 209.14 214.62 209.8 214.62 212.7 208.17 218.15 209.87 226.51 210.83 235.5 213.4 239.03 214.68 256.42 217.57 257.64 219.97 260.69 218.85 262.94 219.97 278.52 223.12 282.87 223.12 280.18 230.26 276.7 230.26 271.56 231.56 270.87 231.74 264.95 230.26 264.95 230.26 262.86 235.57 263.12 237.31 264.95 237.31 267.04 241.75 270.21 244.01 270.21 246.71 264.86 249.58 264.25 251.84 262.25 252.53 259.73 254.8 257.99 261.32 257.55 262.28 256.42 264.79 257.12 267.64 259.28 267.95 255.55 283.07 255.55 288.14 250.28 288.33 247.41 295.8 247.89 298.12 249.33 299.48 246.37 299.48 242.62 302.94 242.28 302.94 237.28 301.5 234.28 304.92 234.28 303.06 232.05 299.61 232.16 299.61 228.94 297.05 229.16 295.94 226.27 289.93 224.04 289.15 222.48 284.85 222.71 282.7 219.37 277.36 217.37 277.36 215.48 282.48 214.59 283.81 216.03 286.82 216.03 286.82 214.14 281.14 212.03 280.7 208.91 278.81 206.69 269.48 207.02"/>
    </g>
    <g id="SEGUELA">
        <polygon class="cls-1" points="197.03 227.63 176.81 227.63 173.6 225.39 173.6 215.92 172.15 212.47 172.15 209.5 170.07 203.88 166.86 203.88 166.86 206.61 164.45 206.61 162.2 203.88 130.75 205.01 132.03 209.34 133.8 210.97 132.24 215.65 134.4 217.59 135.76 225.44 137.7 226.12 139.52 228.28 136.79 229.65 138.61 234.66 136.1 235.91 140.54 240.69 140.54 242.67 139.06 242.67 139.06 244.9 141.45 246.95 141.45 249.11 139.63 249.79 140.54 253.77 142.66 257.3 141.09 259.69 142.66 264.9 137.65 269.23 137.84 271.59 141.62 271.59 141.62 277.28 186 277.28 199.89 283.02 210.91 279.45 219.97 278.52 218.85 262.94 219.97 260.69 217.57 257.64 214.68 256.42 213.4 239.03 210.83 235.5 209.87 226.51 207.46 226.67 202.81 224.75 197.03 227.63"/>
    </g>
    <g id="TOUBA">
        <polygon class="cls-1" points="132.24 215.65 127.68 215.65 125.86 216.68 123.7 212.47 120.17 212.47 120.17 215.54 117.44 217.13 116.08 216.11 113.8 216.34 113.35 219.52 110.5 219.52 105.72 216.56 99.92 221.46 99.92 224.3 96.05 224.3 94 222.37 92.98 219.64 90.36 217.82 86.83 218.38 89.79 222.94 79.12 222.15 78.17 226.37 77.08 226.79 77.85 229.74 77.64 236.59 78.69 238.59 81.86 239.44 83.23 244.08 83.23 246.19 79.12 254.26 77.08 254.26 78.17 256.84 78.06 258.63 75.95 261.48 75.64 264.36 73.3 264.36 77.08 269.39 82.77 269.62 85.02 272.08 90.44 272.87 91.33 270.9 98.51 270.9 100.18 268.54 100.18 251.43 103.03 248.18 104.51 244.05 108.15 243.17 109.03 246.12 111.02 246.51 119.16 251.92 121.32 251.92 124.96 257.23 124.96 259.69 141.09 259.69 142.66 257.3 140.54 253.77 139.63 249.79 141.45 249.11 141.45 246.95 139.06 244.9 139.06 242.67 140.54 242.67 140.54 240.69 136.1 235.91 138.61 234.66 136.79 229.65 139.52 228.28 137.7 226.12 135.76 225.44 134.4 217.59 132.24 215.65"/>
    </g>
    <g id="OUANINOU">
        <polygon class="cls-1" points="79.12 222.15 75.95 214.03 71.73 212.76 71.73 218.25 67.41 218.35 63.62 216.35 63.62 211.92 57.92 211.92 51.07 210.97 47.06 212.45 41.48 212.55 40.38 210.97 37.47 210.97 36.2 214.56 32.72 214.56 32.72 219.19 35.15 224.89 35.04 232.16 33.15 233.43 32.72 237.12 35.15 237.12 38.84 241.02 46.43 241.65 48.96 243.17 51.39 243.17 51.18 241.23 55.99 240.81 55.99 246.93 54.66 246.93 54.66 249.67 57.82 249.67 60.88 253.78 60.97 256.87 64.7 257.17 65.8 257.12 65.8 255.97 68.81 256.06 69.52 261.84 71.37 261.79 73.3 264.36 75.64 264.36 75.95 261.48 78.06 258.63 78.17 256.84 77.08 254.26 79.12 254.26 83.23 246.19 83.23 244.08 81.86 239.44 78.69 238.59 77.64 236.59 77.85 229.74 77.08 226.79 78.17 226.37 79.12 222.15"/>
    </g>
    <g id="SIPILOU">
        <polygon class="cls-1" points="64.7 257.17 57.32 256.57 57.12 254.26 55.21 254.26 54.96 254.91 50.34 254.96 47.53 258.63 46.27 262.94 42.96 268.72 42.96 272.33 46.02 277.2 44.23 282.72 48.91 282.72 52.78 280.45 58.12 280.45 58.12 282.72 68.22 286.63 74.02 286.63 72.74 283.93 72.74 280.45 77.08 274.54 77.08 269.39 71.37 261.79 69.52 261.84 68.81 256.06 65.8 255.97 65.8 257.12 64.7 257.17"/>
    </g>
    <g id="BIANKOUMA">
        <polygon class="cls-1" points="141.09 259.69 124.96 259.69 124.96 257.23 121.32 251.92 119.16 251.92 111.02 246.51 109.03 246.12 108.15 243.17 104.51 244.05 103.03 248.18 100.18 251.43 100.18 254.08 100.18 268.54 98.51 270.9 91.33 270.9 90.44 272.87 85.02 272.08 82.77 269.62 77.08 269.39 77.08 274.54 72.74 280.45 72.74 283.93 74.02 286.63 68.22 286.63 58.12 282.72 55.99 282.72 55.99 288.76 57.82 289.81 59.03 316.54 63.86 313.37 62.95 304.61 67.94 300.12 75.03 300.12 76.58 301.59 77.9 303.86 81.83 303.86 81.83 300.99 93.75 296.16 93.75 293.59 98.59 291.32 102.36 291.32 103.27 289.81 105.38 289.81 106.59 297.36 103.42 299.8 103.42 303.55 106.89 304.61 111.02 307.93 111.02 310.62 121.99 304.16 121.99 299.8 127.42 289.81 131.95 288.76 135.42 283.93 141.62 284.68 141.62 277.28 141.62 271.59 137.84 271.59 137.65 269.23 142.66 264.9 141.09 259.69"/>
    </g>
    <g id="DANANE">
        <polygon class="cls-1" points="44.23 282.72 41.67 288.15 41.67 290.57 39.4 291.32 37.89 295.7 39.25 299.8 35.12 301.74 27.02 297.21 26.42 294.95 24.15 294.95 23.1 297.21 19.13 297.36 18.27 292.23 11.02 300.12 12.53 302.88 14.94 302.88 16.75 310.5 16.15 312.55 17.81 315.03 17.81 321.2 21.43 326.5 20.83 329.37 23.55 331.18 23.55 333.6 26.27 334.35 28.99 334.35 28.99 337.83 27.38 339.64 32.49 340.95 33.22 344.45 39.35 344.45 41.98 342.85 45.19 342.56 45.19 345.62 49.13 345.62 50.45 347.08 53.51 347.52 55.99 354.67 65.19 342.41 68.09 340.24 69.75 329.22 59.03 316.54 57.82 289.81 55.99 288.76 55.99 282.72 58.12 282.72 58.12 280.45 52.78 280.45 48.91 282.72 44.23 282.72"/>
    </g>
    <g id="MAN">
        <polygon class="cls-1" points="102.36 291.32 98.59 291.32 93.75 293.59 93.75 296.16 81.83 300.99 81.83 303.86 77.9 303.86 76.58 301.59 75.03 300.12 67.94 300.12 62.95 304.61 63.86 313.37 59.03 316.54 69.75 329.22 68.09 340.24 65.19 342.41 77.89 351.02 81.25 350 83.15 345.19 85.63 345.19 94.68 347.96 96.29 346.94 101.98 346.35 99.79 341.1 105.19 335.7 102.81 329.52 99.64 326.5 104.02 320.01 104.02 315.93 111.02 310.62 111.02 307.93 106.89 304.61 103.42 303.55 103.42 299.8 106.59 297.36 105.38 289.81 103.27 289.81 102.36 291.32"/>
    </g>
    <g id="KOUIBLY">
        <polygon class="cls-1" points="101.45 323.18 99.64 326.5 102.81 329.52 105.19 335.7 110.45 335.7 114.1 327.81 121.1 332.48 124.9 332.05 127.24 334.53 131.18 334.53 133.22 335.7 136.43 334.09 139.21 335.7 141.98 336.13 144.03 333.45 142.13 331.33 143.29 320.27 141.62 315.63 144.18 315.63 144.18 313.07 140.56 307.55 137.54 308.95 135.42 306.27 130.33 306.88 128.18 312.55 121.1 320.16 115.8 321.82 110.36 321.82 104.02 320.01 101.45 323.18"/>
    </g>
    <g id="FACOBLY">
        <polygon class="cls-1" points="135.42 283.93 131.95 288.76 127.42 289.81 123.35 296.46 121.99 299.8 121.99 304.16 111.57 310.2 104.02 315.93 104.02 320.01 110.36 321.82 115.8 321.82 121.1 320.16 128.18 312.55 130.33 306.88 135.42 306.27 137.54 308.95 140.56 307.55 144.18 313.07 148.11 311.49 149.01 309.59 147.03 307.03 147.03 304.01 145.39 301.89 147.03 300.12 149.92 300.12 149.92 296.91 147.03 294.06 144.78 294.06 142.13 287.85 143.29 286.04 141.62 284.68 135.42 283.93"/>
    </g>
    <g id="ZUENOULA">
        <polygon class="cls-1" points="224.2 296.46 212.42 303.25 212.42 308.84 201.69 329.42 213.95 330.15 223.2 330.15 223.2 326.5 226.5 326.21 230.01 324.31 231.57 326.5 232.34 329.13 246.8 334.97 249.3 336.33 249.94 328.34 252.66 328.34 253.75 326.7 252.66 324.31 252.66 322.95 257.2 322.95 257.2 320.68 260.76 316.96 260.76 314.2 264 308.21 267.46 307.55 267.64 304.74 269.48 304.07 269 300.63 266.89 296.54 264.79 296.1 261.85 292.36 262.45 290.97 262.45 288.61 261.32 281.66 257.84 281.66 254.8 283.22 246.97 283.92 245.4 281.83 239.74 281.57 236.96 284.53 236.87 288.88 232.43 292.36 224.2 296.46"/>
    </g>
    <g id="BEOUMI">
        <polygon class="cls-1" points="283.07 255.55 267.95 255.55 267.64 259.28 266.51 260.24 266.51 263.87 264.79 265.21 264.79 277.18 271.77 285.6 272.06 292.68 269.19 294.06 272.16 297.47 272.16 299.8 271.2 300.63 269 300.63 269.48 304.07 267.64 304.74 267.46 307.55 269.28 308.64 284.21 311.49 290.27 311.49 290.27 305.77 292.11 305.77 292.57 306.95 294.48 306.95 295.66 305.96 295.66 301.69 297.72 301.69 300.86 293.65 301 290.62 301.64 285.5 304.92 282.86 304.92 281.26 301 278.86 297.72 272.94 298.12 268.37 301.72 264.93 301.16 261.33 301.24 259.09 302.52 255.89 298.12 249.33 295.8 247.89 288.33 247.41 288.14 250.28 283.07 255.55"/>
    </g>
    <g id="SAKASSOU">
        <polygon class="cls-1" points="300.86 293.65 297.72 301.69 295.66 301.69 295.66 305.96 294.48 306.95 292.57 306.95 292.11 305.77 290.27 305.77 290.27 311.49 284.21 311.49 269.28 308.64 269.1 310.54 267.64 312.9 269.01 317.53 271.28 317.53 271.1 320.08 268.92 321.8 275.36 325.98 291.02 323.25 296.26 323.25 296.26 325.8 298.52 326.08 299.23 329.62 309.42 330.18 313.1 325.23 315.51 325.37 317.07 324.31 318.48 320.27 317.41 315.59 323.07 309.4 323.31 304.06 326.56 301.45 327.28 295.22 325.12 296.51 322.95 296.51 322.95 294.58 318.97 290.61 317.41 290.78 317.88 293.5 314.12 294.06 314.12 291.42 310.92 291.42 310.68 292.86 308.76 292.86 306.44 291.02 301 290.62 300.86 293.65"/>
    </g>
    <g id="BOTRO">
        <polygon class="cls-1" points="321.56 262.21 318.04 259.09 318.04 255.65 312.44 252.61 309.64 252.61 307.56 249.73 304.36 247.81 301.88 247.81 301.08 246.37 299.48 246.37 298.12 249.33 302.52 255.89 301.24 259.09 301.16 261.33 301.72 264.93 298.12 268.37 297.72 272.94 301 278.86 304.92 281.26 304.92 282.86 301.64 285.5 301 290.62 306.44 291.02 308.76 292.86 310.68 292.86 310.92 291.42 314.12 291.42 314.12 294.06 317.88 293.5 317.41 290.78 318.97 290.61 321.26 288.32 321.26 283.99 329.09 271.82 329.09 261.46 323.88 261.33 321.56 262.21"/>
    </g>
    <g id="BOUAKE">
        <polygon class="cls-1" points="361.01 256.4 353.66 257.37 344.38 260.62 341.86 260.62 339.69 259.17 332.82 259.54 329.09 261.46 329.09 271.82 321.26 283.99 321.26 288.32 318.97 290.61 322.95 294.58 322.95 296.51 325.12 296.51 327.28 295.22 326.56 301.45 323.31 304.06 323.07 309.4 317.41 315.59 318.48 320.27 323.01 319.28 325.7 317.44 326.83 313.76 329.95 313.76 335.46 307.55 338.65 307.55 340.33 306.69 343.82 306.69 343.82 302.87 345.94 298.34 347.64 297.63 347.64 295.22 349.76 295.22 352.02 298.76 356.41 298.76 357.55 297.06 361.37 300.88 361.37 302.87 368.16 302.87 369.26 299.8 374.68 298.43 374.68 296.2 376.91 293.49 380.1 293.81 381.86 295.22 384.25 294.13 384.25 290.3 381.14 279.3 381.14 275.15 373.65 270.25 373.89 262.67 371.35 260.02 368.16 253.78 362.21 253.78 361.01 256.4"/>
    </g>
    <g id="M_BAHIAKRO" data-name="M&apos;BAHIAKRO">
        <polygon class="cls-1" points="405.3 265.58 404.5 267.18 401.63 267.18 401.63 269.89 398.6 272.28 381.14 275.15 381.14 279.3 384.25 290.3 384.25 294.13 381.86 295.22 380.1 293.81 376.91 293.49 374.68 296.2 374.68 298.43 369.26 299.8 368.16 302.87 370.14 307.55 375.68 313.76 377.61 315.4 377.61 317.88 382.25 316.82 386.63 311.36 393.63 311.36 395.74 313.83 399.79 314.88 405.43 312.77 415.68 313.76 422.77 319.64 426.2 319.64 429.9 318.58 431.19 320.34 435.36 317.17 435.19 312.77 427.47 304.06 419.17 300.82 419.17 298.59 415.98 298.59 415.67 292.69 417.42 283.76 415.03 282.01 408.19 267.65 408.19 265.58 405.3 265.58"/>
    </g>
    <g id="PRIKO">
        <polygon class="cls-1" points="408.19 267.65 415.03 282.01 417.42 283.76 415.67 292.69 415.98 298.59 419.17 298.59 419.17 300.82 427.47 304.06 435.19 312.77 436.9 309.78 442.76 309.78 443.81 312.95 448.57 315.59 454.55 315.59 456.84 315.59 458.25 310.48 463.18 310.48 466.53 305.55 469.68 305.55 468.29 301.94 470.2 300.12 470.2 297.8 466.86 296.04 464.14 297.8 462.23 296.84 459.68 291.74 454.89 289.18 454.89 282.33 446.44 282.33 446.44 278.98 443.11 278.98 442.46 271.56 441.34 269.41 436.9 268.61 431.19 267.65 431.19 266.22 435.12 265.26 437.99 262.07 436.9 260.16 429.54 262.07 428.74 260.16 430.5 256.97 433.69 256.97 433.21 255.06 430.5 255.06 427.79 253.78 421.56 257.77 423.96 260.8 423.64 265.74 418.22 266.22 415.98 268.45 408.19 267.65"/>
    </g>
    <g id="TANDA">
        <polygon class="cls-1" points="526.98 271.16 520.92 265.9 515.18 264.46 515.18 258.41 517.73 256.97 516.88 254.9 512.94 254.9 508 252.82 499.55 254.58 492.53 262.07 487.11 262.07 483.76 267.97 486 272.44 486 274.99 481.21 285.68 491.42 289.98 493.81 288.7 503.53 288.7 505.29 290.3 510.23 290.3 513.74 289.5 518.05 289.5 521.08 285.83 520.28 283.92 516.88 282.01 525.38 278.66 527.93 274.35 533.99 273.08 533.99 270.05 530.33 269.41 526.98 271.16"/>
    </g>
    <g id="TRANSUA">
        <polygon class="cls-1" points="538.14 280.41 535.43 280.41 536.78 275.47 533.99 273.08 527.93 274.35 525.38 278.66 520.44 280.41 516.88 282.01 520.28 283.92 521.08 285.83 518.05 289.5 513.74 289.5 510.23 290.3 506.63 295.22 510.71 299.8 508.48 304.06 511.03 307.55 508.8 309.92 509.12 311.36 512.94 314.54 516.88 314.7 516.88 318.69 521.08 322.19 524.9 319.64 526.5 321.24 530.33 306.41 530.8 294.45 538.14 280.41"/>
    </g>
    <g id="KOUN-FAO">
        <polygon class="cls-1" points="483.76 267.97 479.3 270.37 475.47 270.37 474.35 269.17 470.05 269.17 467.33 263.51 463.99 262.07 463.99 263.67 458.56 263.51 449.41 269.09 443.11 278.98 446.44 278.98 446.44 282.33 454.89 282.33 454.89 289.18 459.68 291.74 462.23 296.84 464.14 297.8 466.86 296.04 470.2 297.8 470.2 300.12 468.29 301.94 469.68 305.55 473.57 306.43 478.02 311.71 478.02 315.59 476.04 317.7 482.81 320.69 484.13 324.5 486.48 324.21 489.77 327.89 496.46 324.5 496.46 323.33 495.4 322.45 495.4 320.69 500.33 320.69 501.57 329.45 503.68 331.66 503.68 334.96 507.98 336.37 516.88 346.05 521.39 344.65 521.39 339.1 528.89 330.33 526.66 327.89 526.5 321.24 524.9 319.64 521.08 322.19 516.88 318.69 516.88 314.7 512.94 314.54 509.12 311.36 508.8 309.92 511.03 307.55 508.48 304.06 510.71 299.8 506.63 295.22 510.23 290.3 505.29 290.3 503.53 288.7 493.81 288.7 491.42 289.98 481.21 285.68 486 274.99 486 272.44 483.76 267.97"/>
    </g>
    <g id="AGNIBILEKRO">
        <polygon class="cls-1" points="516.88 346.05 507.98 336.37 503.68 334.96 503.68 331.66 501.57 329.45 500.33 320.69 495.4 320.69 495.4 322.45 496.46 323.33 496.46 324.5 489.77 327.89 486.48 324.21 484.13 324.5 482.81 320.69 476.04 317.7 471.46 322.45 473.92 324.5 468.46 325.62 468.29 327.89 469.68 331.66 467.58 334.78 463.18 333.19 464.33 340.21 466.7 341.46 470.93 342.53 468.7 344.65 472.09 348.04 476.04 349.45 477.16 348.04 478.52 348.04 482.81 350.86 485.76 348.18 494.79 348.74 497.61 354.52 499.58 360.59 494.37 361.43 492.53 369.61 498.88 370.31 500.85 370.31 516.88 346.05"/>
    </g>
    <g id="OUELLE">
        <polygon class="cls-1" points="415.68 313.76 405.43 312.77 399.79 314.88 395.74 313.83 393.63 311.36 386.63 311.36 382.25 316.82 377.61 317.88 376.23 318.06 376.69 320.17 380.36 325.49 383.02 328.25 388.98 327.89 396.54 332.18 401.55 332.18 405.74 334.83 408.19 334.83 418.22 331.96 427.44 337.07 435.19 337.07 440.82 332.14 444.87 332.14 445.05 329.45 443.99 327.03 442.93 321.4 440.01 321.4 440.01 315.59 435.19 312.77 435.36 317.17 431.19 320.34 429.9 318.58 426.2 319.64 422.77 319.64 415.68 313.76"/>
    </g>
    <g id="DAOUKRO">
        <polygon class="cls-1" points="469.68 305.55 466.53 305.55 463.18 310.48 458.25 310.48 456.84 315.59 454.55 315.59 448.57 315.59 443.81 312.95 442.76 309.78 436.9 309.78 435.19 312.77 440.01 315.59 440.01 321.4 442.93 321.4 443.99 327.03 445.05 329.45 444.87 332.14 440.82 332.14 435.19 337.07 427.44 337.07 418.22 331.96 408.19 334.83 412.48 339.33 418.22 340.21 421.68 352.41 425.41 352.41 428.23 352.41 434.86 352.41 437.29 354.38 440.01 352.41 445.15 353.54 450.79 357.76 450.79 354.24 453.47 351.42 457 351.42 457 349.73 461.09 347.05 463.34 347.75 465.04 347.75 466.02 344.65 468.7 344.65 470.93 342.53 466.7 341.46 464.33 340.21 463.18 333.19 467.58 334.78 469.68 331.66 468.29 327.89 468.46 325.62 473.92 324.5 471.46 322.45 476.04 317.7 478.02 315.59 478.02 311.71 474.8 307.55 473.57 306.43 469.68 305.55"/>
    </g>
    <g id="BOCANDA">
        <polygon class="cls-1" points="408.19 334.83 405.74 334.83 401.55 332.18 396.54 332.18 388.98 327.89 383.02 328.25 376.14 334.12 372.75 341.46 366.87 340.21 359.67 337.08 357.56 346.95 365.78 350.01 367.07 352.41 366.28 355.56 364.89 355.56 364.89 360.02 368.95 360.02 371.82 363.88 376.38 363.88 381.14 368.64 379.35 376.87 379.9 380.89 384.94 380.75 384.94 378.63 386.63 378.63 386.63 375.25 386.63 372.85 390.58 372.85 390.58 369.89 395.24 371.16 397.63 371.16 400.45 369.05 399.61 366.79 425.41 352.41 421.68 352.41 418.22 340.21 412.48 339.33 408.19 334.83"/>
    </g>
    <g id="K.K">
        <polygon class="cls-1" points="375.68 313.76 370.14 307.55 365.19 307.55 359.9 311.07 361.65 322.26 363.21 324.52 364.62 330.04 360.66 332.45 359.67 337.08 366.87 340.21 372.75 341.46 376.14 334.12 383.02 328.25 380.36 325.49 376.69 320.17 376.23 318.06 377.61 317.88 377.61 315.4 375.68 313.76"/>
    </g>
    <g id="DIDIEVI">
        <polygon class="cls-1" points="368.16 302.87 364.9 302.87 361.37 302.87 361.37 300.88 357.55 297.06 356.41 298.76 352.02 298.76 349.76 295.22 347.64 295.22 347.64 297.63 345.94 298.34 343.82 302.87 343.82 306.69 340.33 306.69 338.65 307.55 335.46 307.55 329.95 313.76 330.8 320.7 335.6 323.11 335.6 325.65 338.65 327.07 352.61 363.28 355.68 363.68 355.38 356.75 357.26 353.68 355.68 350.91 354.99 346.95 357.56 346.95 360.66 332.45 364.62 330.04 363.21 324.52 361.65 322.26 359.9 311.07 365.19 307.55 370.14 307.55 368.16 302.87"/>
    </g>
    <g id="TIEBISSOU">
        <polygon class="cls-1" points="340.33 331.17 338.65 327.07 335.6 325.65 335.6 323.11 330.8 320.7 329.95 313.76 326.83 313.76 325.7 317.44 323.01 319.28 318.48 320.27 317.07 324.31 315.51 325.37 313.1 325.23 309.42 330.18 299.23 329.62 298.52 326.08 296.26 325.8 296.26 323.25 291.02 323.25 275.36 325.98 275 329.61 272.91 330.7 275.09 333.06 280.18 333.88 278.9 336.6 280.99 339.33 284.9 339.24 285.62 337.33 288.53 337.51 291.16 339.06 289.89 340.96 289.89 345.96 291.8 347.05 292.43 349.13 301.03 346.17 309.5 345.29 310.92 346.17 315.19 346.17 317 348.79 324.8 349.44 324.8 351.51 327.86 353.19 332.13 354.61 334.07 360.69 337.02 362.24 339.44 366.65 348.95 366.35 352.61 363.28 340.33 331.17"/>
    </g>
    <g id="ATTIE">
        <polygon class="cls-1" points="327.86 353.19 324.8 351.51 324.8 349.44 317 348.79 315.19 346.17 310.92 346.17 309.5 345.29 301.03 346.17 301.87 349.57 313.12 356.16 314.01 361.85 316.61 362.24 321.91 366.9 320.08 369.84 320.08 380.09 326.41 373.85 330.26 373.85 338.65 375.25 340.33 373.29 339.44 366.65 337.02 362.24 334.07 360.69 332.13 354.61 327.86 353.19"/>
    </g>
    <g id="YAMOU">
        <polygon class="cls-1" points="301.03 346.17 292.43 349.13 289.25 353.04 289.53 358.21 286.99 360.21 287.26 363.84 290.71 365.84 290.98 369.84 295.09 372.74 295.09 375.25 298.43 379.36 299.23 383.5 297.49 385.55 298.06 389.81 306.75 389.81 308.89 392.74 311.17 386.39 316.58 383.54 320.08 380.09 320.08 369.84 321.91 366.9 316.61 362.24 314.01 361.85 313.12 356.16 308.2 353.96 301.87 349.57 301.03 346.17"/>
    </g>
    <g id="BOUAFLE">
        <polygon class="cls-1" points="264 308.21 260.76 314.2 260.76 316.96 257.2 320.68 257.2 322.95 252.66 322.95 252.66 324.31 253.75 326.7 252.66 328.34 249.94 328.34 249.3 336.33 246.8 336.57 242.56 336.43 242.56 340.22 224.17 351.46 222.27 362.26 225.63 369.27 226.36 376.13 231.57 383.03 241.28 383.03 263.57 371.4 295.09 375.25 295.09 372.74 290.98 369.84 290.71 365.84 287.26 363.84 286.99 360.21 289.53 358.21 289.25 353.04 292.43 349.13 291.8 347.05 289.89 345.96 289.89 340.96 291.16 339.06 288.53 337.51 285.62 337.33 284.9 339.24 280.99 339.33 278.9 336.6 280.18 333.88 275.09 333.06 272.91 330.7 275 329.61 275.36 325.98 268.92 321.8 271.1 320.08 271.28 317.53 269.01 317.53 267.64 312.9 269.1 310.54 269.28 308.64 267.46 307.55 264 308.21"/>
    </g>
    <g id="DALOA">
        <polygon class="cls-1" points="239.76 332.63 232.34 329.13 231.57 326.5 230.01 324.31 226.5 326.21 223.2 326.5 223.2 330.15 213.95 330.15 201.69 329.42 201.69 341.68 194.39 341.68 169.28 347.81 169.43 350.73 174.53 357.45 178.18 357.89 181.98 361.39 181.4 365.04 178.48 368.4 178.48 373.21 174.53 372.78 173.07 375.7 176.87 375.4 176.87 377.74 174.83 377.89 175.12 380.72 176.87 383.94 175.56 386.93 182.38 387.48 184.26 382.63 206.55 380.72 219.04 392.75 220.73 392.67 226.09 389.14 227.7 389.22 229 393.13 233.16 392.74 233.16 387.64 231.57 386.21 231.57 383.03 226.36 376.13 225.63 369.27 222.27 362.26 224.17 351.46 242.56 340.22 242.56 336.43 246.8 336.57 246.8 334.97 239.76 332.63"/>
    </g>
    <g id="ZOKOUGBEU">
        <polygon class="cls-1" points="169.28 347.81 150.74 346.43 148.99 345.33 147.03 346.57 143.29 346.57 143.29 354.67 142.13 358.76 144.75 359.05 144.75 361.83 143.59 363.29 143.73 366.94 147.97 367.67 151.47 379.49 150.06 381.39 150.06 386.77 164.7 386.05 175.56 386.93 176.87 383.94 175.12 380.72 174.83 377.89 176.87 377.74 176.87 375.4 173.07 375.7 174.53 372.78 178.48 373.21 178.48 368.4 181.4 365.04 181.98 361.39 178.18 357.89 174.53 357.45 169.43 350.73 169.28 347.81"/>
    </g>
    <g id="BANGOLO">
        <polygon class="cls-1" points="121.1 332.48 114.1 327.81 110.45 335.7 105.19 335.7 99.79 341.1 101.98 346.35 96.29 346.94 94.68 347.96 85.63 345.19 83.15 345.19 81.25 350 77.89 351.02 65.19 342.41 55.99 354.67 63.59 355.7 66.8 357.89 70.16 364.45 90.74 365.04 95.12 357.74 106.65 357.74 135.56 355.7 142.13 358.76 143.29 354.67 143.29 337.89 141.98 336.13 139.21 335.7 136.43 334.09 133.22 335.7 131.18 334.53 127.24 334.53 124.9 332.05 121.1 332.48"/>
    </g>
    <g id="ZOUAN_HOUNIEN" data-name="ZOUAN HOUNIEN">
        <polygon class="cls-1" points="41.98 342.85 39.35 344.45 33.22 344.45 32.49 340.95 27.38 339.64 26.8 346.79 28.99 351.9 25.34 354.67 25.34 360.66 24.02 362.12 25.48 367.38 22.71 373.65 17.6 379.35 17.6 381.54 14.24 383.14 23.73 390 31.62 386.94 35.56 377.16 37.75 380.07 39.65 378.47 39.65 374.24 47.67 369.56 45.92 366.64 45.92 361.83 49.72 359.78 55.99 354.67 53.51 347.52 50.45 347.08 49.13 345.62 45.19 345.62 45.19 342.56 41.98 342.85"/>
    </g>
    <g id="TOULEPLEU">
        <polygon class="cls-1" points="23.73 390 14.24 383.14 7.67 389.13 5.63 389.13 5.63 392.92 2.86 392.92 2.13 396.13 0.38 396.13 0.38 398.76 3.88 398.76 7.97 404.89 9.86 404.89 12.78 401.97 13.22 397.89 15.12 403.14 17.45 403.29 18.77 410.15 17.45 411.17 18.91 413.21 23.73 411.02 25.63 413.21 28.99 415.64 30.59 410 29.57 406.35 31.62 399.49 37.89 395.7 34.68 391.46 34.1 388.25 31.62 386.94 23.73 390"/>
    </g>
    <g id="BLOLEQUIN">
        <polygon class="cls-1" points="63.59 355.7 55.99 354.67 49.72 359.78 45.92 361.83 45.92 366.64 47.67 369.56 39.65 374.24 39.65 378.47 37.75 380.07 35.56 377.16 31.62 386.94 34.1 388.25 34.68 391.46 37.89 395.7 31.62 399.49 29.57 406.35 30.59 410 28.99 415.64 34.39 417.3 37.31 417.3 38.77 420.07 44.17 420.07 51.32 415.64 54.83 416.28 55.27 418.03 65.19 419.93 65.19 414.38 72.05 406.35 74.1 406.35 76.58 400.88 75.41 398.18 75.41 393.55 72.2 388.54 71.61 379.05 75.41 376.13 73.95 374.67 73.95 372.05 70.16 364.45 66.8 357.89 63.59 355.7"/>
    </g>
    <g id="GUIGLO">
        <polygon class="cls-1" points="80.67 364.45 70.16 364.45 73.95 372.05 73.95 374.67 75.41 376.13 71.61 379.05 72.2 388.54 75.41 393.55 75.41 398.18 76.58 400.88 74.1 406.35 72.05 406.35 65.19 414.38 65.19 419.93 70.65 429.07 75.42 429.2 84.31 427.27 95.91 425.85 110.73 425.46 114.73 420.05 114.86 415.67 122.59 409.09 130.33 409.09 118.77 394.97 98.04 383.43 98.04 380.72 94.83 377.16 95.85 373.51 95.85 371.61 91.91 370.44 91.91 367.67 90.74 365.04 80.67 364.45"/>
    </g>
    <g id="DUEKOUE">
        <polygon class="cls-1" points="135.56 355.7 106.65 357.74 95.12 357.74 90.74 365.04 91.91 367.67 91.91 370.44 95.85 371.61 95.85 373.51 94.83 377.16 98.04 380.72 98.04 383.43 118.77 394.97 130.33 409.09 131.49 412.19 137.07 407.83 134.88 405.33 134.88 402.44 137.77 402.04 148.85 393.55 147.03 390.03 150.06 386.77 150.06 381.39 151.47 379.49 147.97 367.67 143.73 366.94 143.59 363.29 144.75 361.83 144.75 359.05 142.13 358.76 135.56 355.7"/>
    </g>
    <g id="ISSIA">
        <polygon class="cls-1" points="182.38 387.48 164.7 386.05 150.06 386.77 147.03 390.03 148.85 393.55 153.54 400.34 151.05 402.14 148.25 401.94 148.05 403.63 150.45 403.63 150.85 406.03 161.83 419.91 171.51 419.81 185.16 417.78 187.67 415.64 194.91 421.04 197.56 420.84 201.84 418.29 210.65 417.09 213.63 413.99 223.2 413.99 239.25 397.33 233.16 392.74 229 393.13 227.7 389.22 226.09 389.14 220.73 392.67 219.04 392.75 206.55 380.72 184.26 382.63 182.38 387.48"/>
    </g>
    <g id="SINFRA">
        <polygon class="cls-1" points="295.09 375.25 263.57 371.4 241.28 383.03 231.57 383.03 231.57 386.21 233.16 387.64 233.16 392.74 239.25 397.33 265.9 398.82 268.56 394.26 271.56 393.66 271.56 395.79 274.12 395.79 281.96 392.74 282.67 390.66 289.89 389.81 291.6 387.1 294.64 384.96 297.49 385.55 299.23 383.5 298.43 379.36 295.09 375.25"/>
    </g>
    <g id="OUME">
        <polygon class="cls-1" points="281.96 392.74 274.12 395.79 271.56 395.79 271.56 393.66 268.56 394.26 265.9 398.82 266.48 409.09 262.23 414.79 267.28 415.02 267.28 419.5 263.72 419.5 264.87 423.64 267.28 423.64 267.28 426.51 279.85 431.09 284.36 430.48 287.65 431.7 293.74 429.86 295.71 426.51 302.08 421.41 304.51 422.22 308.45 420.6 314.01 422.57 317.56 411.33 314.63 410.33 312.17 412.18 307.89 411.33 307.32 405.63 308.46 398.5 306.18 398.5 306.18 395.08 308.89 395.08 308.89 392.74 306.75 389.81 298.06 389.81 297.49 385.55 294.64 384.96 291.6 387.1 289.89 389.81 282.67 390.66 281.96 392.74"/>
    </g>
    <g id="DJE">
        <polygon class="cls-1" points="327.27 395.79 324.85 395.79 322 398.82 322 400.07 318.58 401.47 318.58 404.49 314.01 407.01 314.63 410.33 317.56 411.33 327.53 418.81 328.12 415.03 331.12 412.75 333.68 412.75 335.6 410.75 335.6 404.91 333.82 404.91 333.82 400.5 332.11 400.5 327.27 395.79"/>
    </g>
    <g id="TOUMODI">
        <polygon class="cls-1" points="330.26 373.85 326.41 373.85 316.58 383.54 311.17 386.39 308.89 392.74 308.89 395.08 306.18 395.08 306.18 398.5 308.46 398.5 308.32 401.47 307.32 405.63 307.89 411.33 312.17 412.18 314.63 410.33 317.56 411.33 327.53 418.81 332.83 417.77 334.8 418.7 332.31 420.6 332.93 423.79 337.02 423.48 339.89 421.71 343.52 421.19 352.35 423.58 361.07 422.86 365.02 420.16 362.66 416.14 364.13 413.53 364.13 408.25 360.97 404.12 361.67 400.77 356.17 399.5 357.02 396.69 357.02 393.86 360.03 393.86 360.03 391.33 352.81 386.26 349.34 386.26 346.27 389.52 342.69 388.14 342.69 383.58 340.63 383.58 340.53 379.82 342.69 379.82 342.69 377.44 340.63 377.44 338.65 375.25 333.68 374.42 330.26 373.85"/>
    </g>
    <g id="DIMBOKRO">
        <polygon class="cls-1" points="381.14 368.64 376.38 363.88 371.82 363.88 368.95 360.02 364.89 360.02 364.89 355.56 366.28 355.56 367.07 352.41 365.78 350.01 357.56 346.95 354.99 346.95 355.68 350.91 357.26 353.68 355.38 356.75 355.68 363.68 352.61 363.28 348.95 366.35 339.44 366.65 340.33 373.29 338.65 375.25 340.63 377.44 342.69 377.44 342.69 379.82 340.53 379.82 340.63 383.58 342.69 383.58 342.69 388.14 346.27 389.52 349.34 386.26 352.81 386.26 360.03 391.33 368.55 388.37 375.77 392.74 379.02 390.9 379.9 380.89 379.35 376.87 381.14 368.64"/>
    </g>
    <g id="M_BATTO" data-name="M&apos;BATTO">
        <polygon class="cls-1" points="375.77 392.74 368.55 388.37 360.03 391.33 360.03 393.86 357.02 393.86 357.02 396.69 356.17 399.5 361.67 400.77 360.97 404.12 364.13 408.25 364.13 413.53 362.66 416.14 365.02 420.16 382.25 422.86 384.96 420.97 386.98 420.97 387.54 421.98 390.48 421.8 390.84 420.97 405.09 420.97 408.21 427.68 418.42 421.52 420.44 421.71 415.68 413.53 417.51 401.34 400.45 398.94 389.74 377.65 389.74 375.25 386.63 375.25 386.63 378.63 384.94 378.63 384.94 380.75 379.9 380.89 379.02 390.9 375.77 392.74"/>
    </g>
    <g id="BONGOUANOU">
        <polygon class="cls-1" points="399.61 366.79 400.45 369.05 397.63 371.16 395.24 371.16 390.58 369.89 390.58 372.85 386.63 372.85 386.63 375.25 389.74 375.25 389.74 377.65 400.45 398.94 417.51 401.34 422.77 399.79 431.19 394.57 419.35 383.87 418.22 380.33 421.89 377.08 423.72 368.9 428.23 358.33 428.23 352.41 425.41 352.41 399.61 366.79"/>
    </g>
    <g id="ARRAH">
        <polygon class="cls-1" points="440.01 352.41 437.29 354.38 434.86 352.41 428.23 352.41 428.23 358.33 423.72 368.9 421.89 377.08 418.22 380.33 419.35 383.87 431.19 394.57 434.15 394.99 440.01 393.72 441.2 395.98 445.29 395.7 446.56 391.61 449.41 391.04 451.5 386.53 449.41 382.58 452.06 379.48 449.41 373.98 452.2 372.71 453.75 370.03 453.75 368.48 450.79 366.93 450.79 364.68 455.59 359.74 453.75 356.07 452.34 357.76 450.79 357.76 445.15 353.54 440.01 352.41"/>
    </g>
    <g id="AKOUPE">
        <polygon class="cls-1" points="431.19 394.57 422.77 399.79 417.51 401.34 415.68 413.53 420.44 421.71 427.52 427.5 433.35 427.48 434.69 428.47 436.86 428.47 443.37 419.73 442.24 417.77 448.75 415.18 455.57 414.25 462.5 404.12 464.33 398.38 461.65 394.57 461.65 392.31 459.25 391.04 459.11 388.65 460.81 386.53 458.27 385.55 456.01 386.53 451.5 386.53 449.41 391.04 446.56 391.61 445.29 395.7 441.2 395.98 440.01 393.72 434.15 394.99 431.19 394.57"/>
    </g>
    <g id="ABENGOUROU">
        <polygon class="cls-1" points="482.81 350.86 478.52 348.04 477.16 348.04 476.04 349.45 472.09 348.04 468.7 344.65 466.02 344.65 465.04 347.75 463.34 347.75 461.09 347.05 457 349.73 457 351.42 453.47 351.42 450.79 354.24 450.79 357.76 452.34 357.76 453.75 356.07 455.59 359.74 450.79 364.68 450.79 366.93 453.75 368.48 453.75 370.03 452.2 372.71 449.41 373.98 452.06 379.48 449.41 382.58 451.5 386.53 456.01 386.53 458.27 385.55 460.81 386.53 459.11 388.65 459.25 391.04 461.65 392.31 461.65 394.57 464.33 398.38 462.5 404.12 466.84 404.12 466.84 407.33 468.59 408.88 474.9 408.98 476.04 409.7 476.04 411.33 477.07 415.39 479.65 418.08 479.65 423.09 483.79 416.73 483.79 414.67 486.48 414.15 487.82 416.73 492.89 416.22 500.12 413.53 506.63 414.05 501.7 396.26 501.98 389.77 500.15 388.79 500.15 385.97 504.24 379.34 504.52 375.39 500.85 370.31 498.88 370.31 492.53 369.61 494.37 361.43 499.58 360.59 497.61 354.52 494.79 348.74 485.76 348.18 482.81 350.86"/>
    </g>
    <g id="BETTIE">
        <polygon class="cls-1" points="506.63 414.05 500.12 413.53 492.89 416.22 487.82 416.73 486.48 414.15 483.79 414.67 483.79 416.73 479.65 423.09 478.52 425.31 480.38 427.28 484.68 427.69 486.48 432.75 484.68 432.75 486.48 437.41 484.68 437.41 484.68 439.89 486.48 442.57 486.48 447.95 483.17 447.95 481.64 455.62 483.63 455.56 486.58 456.56 490.8 456.19 494.17 454.96 496.94 452.78 500.93 451.83 501.09 449.58 499.68 448.58 499.51 447.17 502.43 444.5 502.34 442.17 503.09 441.67 502.93 436.26 504.09 436.17 505.34 433.17 506.26 432.51 506.26 430.51 505.59 429.68 505.51 427.26 507.17 425.26 507.17 423.09 507.98 416.11 506.63 414.05"/>
    </g>
    <g id="YAKASSE_ATTOBROU" data-name="YAKASSE ATTOBROU">
        <polygon class="cls-1" points="479.65 423.09 479.65 418.08 477.07 415.39 476.04 411.33 473.97 411.77 472.52 413.63 468.8 415.08 459.6 423.09 459.6 425.83 455.98 429.03 455.98 431.31 458.26 434.51 458.67 438.23 457.12 439.78 458.98 445.06 458.36 450.12 452.88 456.66 466.85 457.69 473.04 458.8 477.57 459.45 480.81 460.69 483.17 460.87 483.17 459.33 481.46 457.92 481.64 455.62 483.17 447.95 486.48 447.95 486.48 442.57 484.68 439.89 484.68 437.41 486.48 437.41 484.68 432.75 486.48 432.75 484.68 427.69 480.38 427.28 478.52 425.31 479.65 423.09"/>
    </g>
    <g id="ADZOPE">
        <polygon class="cls-1" points="462.5 404.12 460.84 406.4 455.57 414.25 448.75 415.18 442.24 417.77 443.37 419.73 436.86 428.47 434.69 428.47 433.35 427.48 427.52 427.5 430.37 441.19 422.77 449.83 422.77 451.95 424.39 453.36 424.67 454.96 422.77 457.55 422.77 459.94 424.39 460.4 424.76 462.61 430.09 464.72 431.47 469.04 437.93 469.15 439.11 468.24 439.11 465.5 440.21 464.23 440.94 465.14 442.49 465.14 442.49 463.95 445.13 463.95 452.88 456.66 458.36 450.12 458.98 445.06 457.12 439.78 458.67 438.23 458.26 434.51 455.98 431.31 455.98 429.03 459.6 425.83 459.6 423.09 468.8 415.08 472.52 413.63 473.97 411.77 476.04 411.33 476.04 409.7 474.9 408.98 472.63 408.88 468.59 408.88 466.84 407.33 466.84 404.12 462.5 404.12"/>
    </g>
    <g id="AGBOVILLE">
        <polygon class="cls-1" points="408.21 427.68 405.09 420.97 390.84 420.97 390.48 421.8 387.54 421.98 386.98 420.97 384.96 420.97 382.25 422.86 378.93 444.77 368.55 460.96 376.09 464.18 381.24 466.76 384.19 466.76 384.83 469.39 388.05 469.81 392.29 472.39 394.81 475.02 395.19 477.22 396.05 478.24 396.05 479.85 393.27 482.9 395.75 485 402.36 485 404.9 484.37 414.95 483.73 419.71 485.74 437.11 484.19 437.29 472.45 435.74 470.88 435.74 469.15 431.47 469.04 430.09 464.72 424.76 462.61 424.39 460.4 422.77 459.94 422.77 457.55 424.67 454.96 424.39 453.36 422.77 451.95 422.77 449.83 430.37 441.19 427.52 427.5 420.44 421.71 418.42 421.52 408.21 427.68"/>
    </g>
    <g id="TIASSALE">
        <polyline class="cls-1" points="352 481.3 349.14 481.98 352.33 486.79 364.13 483.44 365.31 478.07 369.17 473.41 369.23 469.76 374.86 470.14 375.02 467.78 374.16 466.28 376.09 464.18 368.55 460.96 378.93 444.77 382.25 422.86 365.02 420.16 361.07 422.86 352.35 423.58 355.36 429.71 360.03 432.41 360.03 435.42 358.16 435.21 359.2 439.88 357.02 440.92 351.41 436.56 336.7 445.61 337.05 456.03 342.03 459.28 343.64 468.28 347.76 469.87 351.57 469.87 353.05 473.79 355.38 476.22 355.38 478.44 352 481.3"/>
    </g>
    <g id="TAABO">
        <polygon class="cls-1" points="317.56 411.33 314.01 422.57 323.04 431.48 335.06 433.57 337.28 438.41 333.23 442.25 336.7 445.61 351.41 436.56 357.02 440.92 359.2 439.88 358.16 435.21 360.03 435.42 360.03 432.41 355.36 429.71 352.35 423.58 343.52 421.19 339.89 421.71 337.02 423.48 332.93 423.79 332.31 420.6 334.8 418.7 332.83 417.77 330.96 418.08 327.53 418.81 317.56 411.33"/>
    </g>
    <g id="DIVO">
        <polygon class="cls-1" points="308.45 420.6 304.51 422.22 302.08 421.41 295.71 426.51 293.74 429.86 287.65 431.7 291.13 439.79 291.6 445.52 288.73 448.34 287 458.57 286.58 473.92 289.57 473.92 293.05 476.44 314.47 478.86 328.87 479.17 333.37 481.42 335.48 483.31 337.29 480.45 340.78 479.08 342.47 476.22 339.83 471.03 339.83 467.75 340.67 466.8 340.67 464.37 342.69 463.73 342.03 459.28 337.05 456.03 336.7 445.61 333.23 442.25 337.28 438.41 335.06 433.57 323.04 431.48 314.01 422.57 308.45 420.6"/>
    </g>
    <g id="LAKOTA">
        <polygon class="cls-1" points="287.65 431.7 284.36 430.48 279.85 431.09 274.4 428.89 267.28 426.51 263.72 430.76 263.72 441.9 261.88 444.43 261.88 451.21 247.64 467.55 245.57 466.95 240.58 479.49 239.76 482.84 242.48 488.45 245.37 490.26 256.54 489.2 262.05 490.63 264.59 488.41 264.93 485.43 267.03 484.32 267.03 481.98 276.21 489.08 278.76 489.08 280.86 486.75 282.52 487.42 283.21 483.49 286.19 483.45 286.19 481.98 284.91 479.62 286.19 477.75 286.58 473.92 287 458.57 288.73 448.34 291.6 445.52 291.13 439.79 287.65 431.7"/>
    </g>
    <g id="GAGNOA">
        <polygon class="cls-1" points="239.25 397.33 223.2 413.99 213.63 413.99 210.65 417.09 204.59 417.78 203.98 430.52 215.29 451.2 215.49 454.36 216.92 455.08 216.92 458.95 219.87 460.48 219.77 464.75 221.3 465.37 221.3 473.92 223.38 472.52 225.1 467.55 232.16 467.55 233.06 469.45 236.14 470.26 240.58 479.49 245.57 466.95 247.64 467.55 261.88 451.21 261.88 444.43 263.72 441.9 263.72 430.76 267.28 426.51 267.28 423.64 264.87 423.64 263.72 419.5 267.28 419.5 267.28 415.02 262.23 414.79 266.48 409.09 265.9 398.82 239.25 397.33"/>
    </g>
    <g id="SOUBRE">
        <polygon class="cls-1" points="185.16 417.78 171.51 419.81 177.1 426.99 177.1 429.39 174.41 432.88 166.72 434.78 166.62 436.68 169.62 436.58 168.52 439.07 168.62 442.57 176 443.17 179.4 445.16 179.4 448.26 178 448.26 176.3 450.75 173.04 450.89 171.92 452.3 172.29 455.87 178.22 460.67 176.9 462.64 179.25 464.71 177.75 466.87 178.5 469.88 184.89 472.23 186.02 475.62 189.59 476.56 194.95 480.79 195.05 483.42 194.11 483.42 194.2 486.43 197.7 488.22 210.52 487.1 214.42 481.98 220.33 481.98 223.2 480.67 221.3 476.51 221.3 473.92 221.3 465.37 219.77 464.75 219.87 460.48 216.92 458.95 216.92 455.08 215.49 454.36 215.29 451.2 203.98 430.52 204.59 417.78 201.84 418.29 197.56 420.84 194.91 421.04 187.67 415.64 185.16 417.78"/>
    </g>
    <g id="BUYO">
        <polygon class="cls-1" points="148.85 393.55 137.77 402.04 134.88 402.44 134.88 405.33 137.07 407.83 131.49 412.19 132.13 417.47 132.13 420.82 128.91 426.24 131.74 429.07 134.97 429.07 137.29 430.75 140.6 438.22 141.07 456.34 142.95 458.03 147.37 458.32 158.66 462.36 158.94 457.09 160.54 454.08 160.54 449.95 163.64 451.26 166.65 447.78 172.67 447.78 173.04 450.89 176.3 450.75 178 448.26 179.4 448.26 179.4 445.16 176 443.17 168.62 442.57 168.52 439.07 169.62 436.58 166.62 436.68 166.72 434.78 174.41 432.88 177.1 429.39 177.1 426.99 171.51 419.81 161.83 419.91 150.85 406.03 150.45 403.63 148.05 403.63 148.25 401.94 151.05 402.14 153.54 400.34 148.85 393.55"/>
    </g>
    <g id="TA">
        <polygon class="cls-1" points="140.6 438.22 137.29 430.75 134.97 429.07 131.74 429.07 128.91 426.24 132.13 420.82 132.13 417.47 131.49 412.19 130.33 409.09 122.59 409.09 114.86 415.67 114.73 420.05 110.73 425.46 95.91 425.85 84.31 427.27 75.42 429.2 70.65 429.07 68.97 432.68 68.97 437.97 74.38 436.55 74.13 440.67 76.06 442.74 74.51 447.78 76.7 447.78 77.09 450.47 83.92 454.98 85.6 450.73 87.92 454.08 93.08 455.75 96.68 457.17 96.43 460.52 98.36 461.04 99.91 459.75 103 463.23 104.79 458.98 107.77 460.39 107.9 466.84 107.51 469.8 108.71 474.57 112.8 482.61 123.3 482.09 126.24 479.92 140.07 478.38 140.6 438.22"/>
    </g>
    <g id="MEAGUI">
        <path class="cls-1" d="M169.07,617" transform="translate(-11.45 -120.83)"/>
        <line class="cls-1" x1="146.43" y1="494.8" x2="148.22" y2="496.4"/>
        <path class="cls-1" d="M154.78,602.8" transform="translate(-11.45 -120.83)"/>
        <polygon class="cls-1" points="141.07 456.34 142.95 458.03 147.37 458.32 154.24 460.95 158.66 462.36 158.94 457.09 160.54 454.08 160.54 449.95 163.64 451.26 166.65 447.78 172.67 447.78 173.04 450.89 171.92 452.3 172.29 455.87 178.22 460.67 176.9 462.64 179.25 464.71 177.75 466.87 178.5 469.88 184.89 472.23 186.02 475.62 189.59 476.56 194.95 480.79 195.05 483.42 194.11 483.42 194.2 486.43 197.7 488.22 196.59 490.22 197.26 491.23 200.16 491.11 201.05 495.01 201.38 505.6 198.37 514.18 198.19 515.38 194.86 511.92 190.89 511.92 182.83 516.02 180.4 515.89 179.63 509.11 176.04 507.57 173.87 504.37 173.48 501.94 169.13 500.53 164.52 497.07 157.61 497.07 155.3 499.12 150.44 498.35 146.43 494.8 142.37 488.88 142.37 481.58 140.07 478.38 141.07 456.34"/>
        <path class="cls-1" d="M212.23,626.54" transform="translate(-11.45 -120.83)"/>
        <path class="cls-1" d="M209.32,634.43" transform="translate(-11.45 -120.83)"/>
        <path class="cls-1" d="M202,632.18" transform="translate(-11.45 -120.83)"/>
    </g>
    <g id="GUEYO">
        <polygon class="cls-1" points="232.16 467.55 225.1 467.55 223.38 472.52 221.3 473.92 221.3 476.51 223.2 480.67 224.37 481.12 224.55 489.36 225.82 490.81 225.82 493.25 222.84 496.24 222.74 498.32 227.72 501.22 230.26 504.38 237.59 503.93 239.94 506.11 242.02 506.11 243.29 504.48 244.11 501.13 246.46 498.89 246.46 495.61 244.83 493.34 245.37 490.26 242.48 488.45 239.76 482.84 240.58 479.49 237.5 474.61 236.14 470.26 233.06 469.45 232.16 467.55"/>
    </g>
    <g id="GUITRY">
        <polygon class="cls-1" points="286.19 483.45 286.19 481.98 284.91 479.62 286.19 477.75 286.58 473.92 289.57 473.92 293.05 476.44 302.86 477.68 314.47 478.86 328.87 479.17 333.37 481.42 335.91 484.15 334.11 484.47 335.28 487.75 335.81 493.68 331.15 508.7 331.15 510.61 334.22 513.57 334.22 515.58 330.52 517.38 330.62 521.72 327.38 523.41 325.76 523.3 324.06 522.03 324.38 517.81 319.2 517.81 318.98 520.02 315.39 523.2 309.78 523.3 308.83 524.47 307.13 524.78 301.01 519.6 298.56 519.6 298.46 515.79 295.81 514.84 294.59 514.65 293.81 511.55 299.35 503.58 299.35 502.36 297.13 502.36 296.25 499.37 292.04 499.37 291.27 497.07 289.61 494.17 285.73 491.74 283.41 491.74 282.52 487.42 283.21 483.49 286.19 483.45"/>
        <path class="cls-1" d="M346.51,602.8" transform="translate(-11.45 -120.83)"/>
        <path class="cls-1" d="M346.92,604.14" transform="translate(-11.45 -120.83)"/>
    </g>
    <g id="SIKENSI">
        <polyline class="cls-1" points="364.94 483.06 365.31 478.07 369.17 473.41 369.23 469.76 374.86 470.14 375.02 467.78 374.16 466.28 376.09 464.18 374.16 466.28 375.02 467.78 374.86 470.14 369.23 469.76 369.17 473.41 365.31 478.07 364.94 483.06 364.13 483.44 363.76 487.19 378.02 488.69 379.72 487.51 383.92 488.43 388 488.69 396.05 479.85 396.05 478.24 395.19 477.22 394.81 475.02 392.29 472.39 388.05 469.81 384.83 469.39 384.19 466.76 381.24 466.76 376.2 464.41"/>
    </g>
    <g id="DABOU">
        <polyline class="cls-1" points="359.4 506.8 355.49 509.44 360.46 509.23 362.15 507.54 363.42 508.81 363.42 510.71 361.31 510.71 361.31 512.93 363.42 515.37 368.82 515.26 369.98 516.53 371.78 516.21 375.22 514.73 381.09 514.52 382.68 515.79 384.27 515.68 386.7 513.78 391.04 513.89 392.84 514.63 400.24 514.1 402.46 512.93 403.63 512.93 403.31 511.24 402.68 500.98 403.95 500.24 403.84 497.77 402.78 496.53 402.78 494.31 401.73 493.36 397.07 491.03 394.64 489.55 388.82 488.81 383.92 488.43 379.72 487.51 378.02 488.69 363.76 487.19 363.42 490.29 359.4 494.74 359.4 499.81 360.25 501.08 360.14 504.15 359.4 505 359.4 506.8 355.49 509.44"/>
    </g>
    <g id="ALEPE">
        <polygon class="cls-1" points="452.88 456.66 445.13 463.95 442.49 463.95 442.49 465.14 440.94 465.14 440.21 464.23 439.11 465.5 439.11 468.24 437.93 469.15 435.74 469.15 435.74 470.88 437.29 472.45 437.11 484.19 437.56 486.56 442.31 491.39 445.24 491.39 445.32 493.64 446.6 493.64 446.68 497.71 448.11 497.71 447.99 501.27 447.21 502.53 447.91 503.78 453.06 504.92 453.06 507.82 457.55 511.64 456.63 516.18 456.96 516.99 459.42 517.49 462.54 515.29 464.1 515.46 465.74 515.18 465.91 511.94 468.86 507.54 469.56 498.49 470.56 497.76 470.37 488.57 475.33 488.01 481.32 483.16 484.04 482.91 485.62 480.49 488.03 478.97 492.46 478.92 492.46 477.35 494.06 477.35 494.63 474.46 495.2 474.26 495.2 471.29 490.31 471.24 482.84 468.72 482.81 466.3 484.01 466.61 484.04 464.24 486.78 464.07 487.72 457.62 491.83 457.48 492.94 456.25 494.2 455.91 494.17 454.96 490.8 456.19 486.58 456.56 483.63 455.56 481.64 455.62 481.46 457.92 483.17 459.33 483.17 460.87 480.81 460.69 477.57 459.45 473.04 458.8 466.85 457.69 452.88 456.66"/>
    </g>
    <g id="ABOISSO">
        <path class="cls-1" d="M496.13,588.15" transform="translate(-11.45 -120.83)"/>
        <polyline class="cls-1" points="513.57 518.88 513.35 515.83 512.04 514.81 510.44 514.81 501.2 504.69 499.81 504.69 498.21 505.93 498.21 508.26 495.37 510.88 493.12 510.73 490.79 509.2 487.44 509.06 486.79 509.64 483.15 509.49 484.04 482.91 485.62 480.49 488.03 478.97 492.46 478.92 492.46 477.35 494.06 477.35 494.63 474.46 495.2 474.26 495.2 471.29 490.31 471.24 482.84 468.72 482.81 466.3 484.01 466.61 484.04 464.24 486.78 464.07 487.72 457.62 491.83 457.48 492.94 456.25 494.2 455.91 494.17 454.96 496.94 452.78 500.93 451.83 501.09 449.58 499.68 448.58 499.51 447.17 502.43 444.5 502.34 442.17 503.09 441.67 502.93 436.26 504.09 436.17 505.34 433.17 506.26 432.51 506.26 430.51 505.59 429.68 505.51 427.26 507.17 425.26 507.17 423.09 510.09 423.09 513.92 431.76 515.46 439.25 515.84 443.34 516.17 446.42 522.17 459.08 522.09 461.91 521.17 462.66 521.25 472.57 528 472.91 527.92 476.82 527.08 477.32 527.17 481.15 528.08 482.4 531.91 482.15 534.41 479.49 535.66 479.41 535.66 478.91 537.16 478.91 537.25 479.91 541.41 482.32 543.91 482.32 545.66 483.73 546.83 498.07 548.32 500.42 536.42 500.65 536.42 509.92 530.16 515.1 526.23 515.04 526.23 517.87 524.5 517.87 524.44 522.26 518.24 522.26 516.62 519.19 514.66 519.39"/>
    </g>
    <g id="TIAPOUM">
        <polygon class="cls-1" points="549.73 508.26 547.33 508.11 546.53 506.87 545 507.38 545.15 508.91 546.17 509.35 546.39 512.4 543.84 512.7 543.99 513.86 546.75 515.68 546.9 520.77 549.15 523.32 549.08 526.09 550.32 527.32 546.68 530.6 540.93 530.31 540.93 529.5 540.13 529.5 539.55 530.23 537.58 530.16 536.78 528.78 535.18 529.21 535.18 531.98 532.2 531.62 531.54 530.01 529.79 532.42 526.23 532.42 523.06 529.48 516.62 529.07 514.66 527.32 514.66 519.39 516.62 519.19 518.24 522.26 524.44 522.26 524.5 517.87 526.23 517.87 526.23 515.04 530.16 515.1 536.42 509.92 536.42 500.65 548.32 500.42 549.72 502.28 549.73 508.26"/>
    </g>
    <g id="ADIAKE">
        <path class="cls-1" d="M488.7,645.24s.95-.22,18.27,3.49l17.32,3.71,1.45-2.62,2.33.08-2-1.75v-7.93l-1.1-.51-.21-3.06-1.31-1h-1.6l-7.43-8.37-1.82-1.74h-1.38l-1.6,1.24v2.32l-2.84,2.62-2.25-.14L502.24,630s-2.69-.73-3.35-.15l-.65.59-3.64-.15-1.24,4,4.22,3.57.15,2.33L491.47,643Z" transform="translate(-11.45 -120.83)"/>
    </g>
    <g id="GRAND-BASSAM">
        <polygon class="cls-1" points="462 522.7 477.25 524.41 480.02 522.16 486.28 519.39 486.13 517.06 481.91 513.5 483.15 509.49 484.04 482.91 481.32 483.16 475.33 488.01 470.37 488.57 470.56 497.76 469.56 498.49 468.86 507.54 465.91 511.94 465.74 515.18 464.1 515.46 462.54 515.29 459.42 517.49 456.96 516.99 456.63 516.18 457.55 511.64 453.53 513.86 448.37 514.15 448.29 516.26 445.75 516.33 444.73 518.88 462 522.7"/>
    </g>
    <g id="ABIDJAN">
        <polygon class="cls-1" points="402.36 485 404.9 484.37 414.95 483.73 419.71 485.74 425.43 485.11 426.69 485.11 437.11 484.19 437.56 486.56 442.31 491.39 445.24 491.39 445.32 493.64 446.6 493.64 446.68 497.71 448.11 497.71 447.99 501.27 447.21 502.53 447.91 503.78 453.06 504.92 453.06 507.82 457.55 511.64 453.53 513.86 448.37 514.15 448.29 516.26 445.75 516.33 444.73 518.88 433.65 516.74 426.03 517.14 415.84 518.33 409.98 519.6 409.98 516.42 409.34 516 409.34 513.89 403.95 513.89 403.63 512.93 403.31 511.24 402.68 500.98 403.95 500.24 403.84 497.77 402.78 496.53 402.78 494.31 401.73 493.36 394.64 489.55 388.82 488.81 388 488.69 393.27 482.9 395.75 485 402.36 485"/>
        <path class="cls-1" d="M446.18,637.57" transform="translate(-11.45 -120.83)"/>
    </g>
    <g id="JACQUEVILLE">
        <polygon class="cls-1" points="357.6 525.95 409.98 519.6 409.98 516.42 409.34 516 409.34 513.89 403.95 513.89 403.63 512.93 402.46 512.93 400.24 514.1 392.84 514.63 391.04 513.89 386.7 513.78 384.27 515.68 382.68 515.79 381.09 514.52 375.06 514.73 371.78 516.21 369.98 516.53 368.82 515.26 363.42 515.37 361.31 512.93 361.31 510.71 363.42 510.71 363.42 508.81 362.15 507.54 360.46 509.23 355.49 509.44 355.49 522.46 357.39 523.94 357.6 525.95"/>
    </g>
    <g id="GRAND-LAHOU">
        <polygon class="cls-1" points="349.14 481.98 352 481.3 355.38 478.44 355.38 476.22 353.05 473.79 351.57 469.87 347.76 469.87 343.64 468.28 342.69 463.73 341.42 463.73 340.67 464.37 340.67 466.8 339.83 467.75 339.83 471.03 341.31 474.42 342.47 476.22 340.78 479.08 337.29 480.45 335.91 484.15 334.11 484.47 335.28 487.75 335.81 493.68 331.15 508.7 331.15 510.61 334.22 513.57 334.22 515.58 331.57 517.06 330.52 517.38 330.62 521.72 328.93 522.56 327.38 523.41 325.76 523.3 324.06 522.03 324.38 517.81 319.2 517.81 318.98 520.02 315.39 523.2 309.78 523.3 308.83 524.47 307.13 524.78 301.21 519.6 298.56 519.6 298.46 515.79 295.81 514.84 294.59 514.65 293.26 515.42 293.26 520.62 292.15 521.73 289.45 522.91 288.73 528.18 291.03 530.48 304.63 529.68 328.38 527.61 345.83 526.47 357.6 525.95 357.39 523.94 355.49 522.46 355.49 509.44 355.92 508.87 359.4 506.8 359.4 505 360.14 504.15 360.25 501.08 359.4 499.81 359.4 494.74 363.42 490.29 363.42 487.75 364.13 483.44 352.33 486.79 349.14 481.98"/>
    </g>
    <g id="FRESCO">
        <polygon class="cls-1" points="256.44 536.51 272.65 533.98 290.57 531.67 291.03 530.48 288.73 528.18 289.45 522.91 292.15 521.73 293.26 520.62 293.26 515.42 294.59 514.65 293.81 511.55 299.35 503.58 299.35 502.36 297.13 502.36 296.25 499.37 292.04 499.37 291.27 497.07 289.61 494.17 285.73 491.74 283.41 491.74 282.52 487.42 280.86 486.75 278.76 489.08 276.21 489.08 267.8 481.98 267.03 481.98 267.03 484.32 264.93 485.43 264.59 488.41 262.05 490.63 261.98 492.64 266.16 501.3 266.5 506.37 271.66 520.29 265.82 521.12 266.8 525.74 266.8 527.88 259.44 527.79 254.97 531.92 256.72 533.92 256.44 536.51"/>
    </g>
    <g id="SASSANDRA">
        <polygon class="cls-1" points="219.44 552.52 235.26 545.17 236.04 543.27 241.62 543.27 256.44 536.51 256.72 533.92 254.97 531.92 259.44 527.79 266.8 527.88 266.8 525.74 265.82 521.12 271.66 520.29 266.5 506.37 266.16 501.3 261.98 492.64 262.05 490.63 256.54 489.2 245.37 490.26 244.83 493.34 246.46 495.61 246.46 498.89 244.11 501.13 243.29 504.48 242.02 506.11 239.94 506.11 237.59 503.93 230.26 504.38 227.72 501.22 222.74 498.32 222.84 496.24 225.82 493.25 225.82 490.81 224.55 489.36 224.37 481.12 223.2 480.67 220.33 481.98 214.42 481.98 210.52 487.1 206.72 487.4 197.7 488.22 196.59 490.22 197.26 491.23 200.16 491.11 201.05 495.01 201.38 505.6 198.37 514.18 198.19 515.38 204.08 516.28 205.1 522.16 208.82 527.54 208.82 532.15 206.9 533.17 207.41 536.38 209.84 538.3 209.33 541.88 207.03 542.9 203.7 545.47 207.79 548.79 211.38 548.79 212.91 550.97 213.94 553.66 219.44 552.52"/>
    </g>
    <g id="TOUBA-2" data-name="TOUBA">
        <path class="cls-1" d="M140,707.26l-2.69,1.54-.51,2.69h-5l-11.27,7.93L115,720.7h-4.87l-4.73-2.56.51-2.81,2.3-1.35-1.53-1.73-.13-3.07,1-4.22-.51-4.23-1.66-1.92,2.17-2.3-.13-2.69h-1.28l-.12-4.74h1.66l-.38-8.32-3.46-2v-6.14l-1-3,5.76-2.56v-2.82h-1.28l-.13-2.11,1.28-.57v-2H107v-6.4l3.33-3.72h2.82l2.94-5.63-.51-3.07s-.9.25-.9-.9v-1.15h1.67V636h-1.67l.13-2.43,5.38-1.15,5.25-2.82-1.28-2.69-2.69-.89-1.92-2.05v-2.18L117,619.56l1.92-1,1.53-3.2,2.44-4.35-.39-5.51h1.41l.39-2.05,10.49-.51,2.95-2.18,13.83-1.53,2.3,3.2v7.3l3.46,5.63v2.56l-5,15.11-.64,2-6.78,4.73-1.28,5.38-2.18,1.54L138.71,660l4.1,3.13v4.74l-9.22,22.79Z" transform="translate(-11.45 -120.83)"/>
    </g>
    <g id="SAN_PEDRO" data-name="SAN PEDRO">
        <polygon class="cls-1" points="148.52 497.07 150.44 498.35 155.3 499.12 157.61 497.07 164.52 497.07 169.13 500.53 173.48 501.94 173.87 504.37 176.04 507.57 179.63 509.11 180.4 515.89 182.83 516.02 190.89 511.92 194.86 511.92 198.19 515.38 204.08 516.28 205.1 522.16 208.82 527.54 208.82 532.15 206.9 533.17 207.41 536.38 209.84 538.3 209.33 541.88 207.03 542.9 203.7 545.47 207.79 548.79 211.38 548.79 212.91 550.97 213.94 553.66 201.26 557.24 199.73 559.42 187.44 561.98 184.11 565.31 180.01 566.33 175.66 568.25 156.71 571.2 156.71 573.38 155.69 574.4 153.51 574.4 145.06 583.62 141.22 583.62 128.54 586.43 122.14 569.79 131.36 547 131.36 542.26 127.27 539.13 129.95 525.88 132.13 524.34 133.41 518.97 140.19 514.23 145.83 497.07 145.83 494.51 148.52 497.07"/>
    </g>
</svg>